<?xml version="1.0" encoding="UTF-8" standalone="no"?>
<!-- Created with Inkscape (http://www.inkscape.org/) -->

<svg
   xmlns:dc="http://purl.org/dc/elements/1.1/"
   xmlns:cc="http://creativecommons.org/ns#"
   xmlns:rdf="http://www.w3.org/1999/02/22-rdf-syntax-ns#"
   xmlns:svg="http://www.w3.org/2000/svg"
   xmlns="http://www.w3.org/2000/svg"
   xmlns:sodipodi="http://sodipodi.sourceforge.net/DTD/sodipodi-0.dtd"
   xmlns:inkscape="http://www.inkscape.org/namespaces/inkscape"
   width="75.998413mm"
   height="38.20079mm"
   viewBox="0 0 269.28572 135.35713"
   id="svg2"
   version="1.1"
   inkscape:version="0.91 r13725"
   sodipodi:docname="eloe.svg">
  <defs
     id="defs4" />
  <sodipodi:namedview
     id="base"
     pagecolor="#ffffff"
     bordercolor="#666666"
     borderopacity="1.0"
     inkscape:pageopacity="0"
     inkscape:pageshadow="2"
     inkscape:zoom="2.8"
     inkscape:cx="115.47658"
     inkscape:cy="64.788908"
     inkscape:document-units="px"
     inkscape:current-layer="layer2"
     showgrid="false"
     inkscape:window-width="1600"
     inkscape:window-height="838"
     inkscape:window-x="-8"
     inkscape:window-y="-8"
     inkscape:window-maximized="1"
     fit-margin-top="0"
     fit-margin-left="0"
     fit-margin-right="0"
     fit-margin-bottom="0" />
  <metadata
     id="metadata7">
    <rdf:RDF>
      <cc:Work
         rdf:about="">
        <dc:format>image/svg+xml</dc:format>
        <dc:type
           rdf:resource="http://purl.org/dc/dcmitype/StillImage" />
        <dc:title></dc:title>
      </cc:Work>
    </rdf:RDF>
  </metadata>
  <g
     inkscape:groupmode="layer"
     id="layer2"
     inkscape:label="foreground"
     style="display:inline"
     transform="translate(-35.429287,-26.986139)">
    <rect
       style="fill:#007ac3;fill-opacity:1;stroke:none;stroke-width:5;stroke-linejoin:miter;stroke-miterlimit:4;stroke-dasharray:none;stroke-dashoffset:0;stroke-opacity:1"
       id="rect3334"
       width="269.28571"
       height="135.35713"
       x="35.429287"
       y="26.986139" />
    <path
       style="display:inline;fill:#ffffff"
       d="m 75.140384,146.01185 c 0,-0.15938 1.8431,-4.98887 4.09579,-10.73218 2.25269,-5.74332 6.88053,-17.55109 10.2841,-26.23951 l 6.1883,-15.797117 8.365266,-0.0575 c 6.61868,-0.0455 8.3651,4.4e-4 8.36443,0.21941 -4.4e-4,0.15227 -3.4883,8.767807 -7.75073,19.145627 l -7.749866,18.86878 88.692666,0.1097 c 48.78098,0.0603 88.74748,0.16451 88.81444,0.23149 0.067,0.067 -0.91525,3.30046 -2.1827,7.1855 l -2.30447,7.0637 -74.33482,0 c -40.88416,0 -84.71804,0.0657 -97.408616,0.14592 -19.04626,0.12046 -23.07379,0.0953 -23.07379,-0.14387 z m 107.904636,-1.98776 c 0.90723,-0.53481 0.99879,-0.53362 0.85635,0.0111 -0.10193,0.38978 -0.007,0.43881 0.85203,0.43881 0.53173,0 0.96678,-0.061 0.96678,-0.13554 0,-0.13364 1.20842,-6.09078 1.4301,-7.04996 0.10532,-0.45571 0.0382,-0.49366 -0.87323,-0.49366 -0.844,0 -1.00379,0.0717 -1.10076,0.49366 -0.0624,0.27152 -0.31587,1.38225 -0.56326,2.4683 -0.51023,2.23984 -1.33618,3.40077 -2.4195,3.40077 -1.13833,0 -1.19949,-0.38479 -0.56486,-3.55353 0.31785,-1.58701 0.5359,-2.92747 0.48455,-2.97882 -0.0513,-0.0513 -0.49081,-0.0262 -0.97659,0.0559 -1.00082,0.16908 -0.9425,0.0549 -1.55525,3.045 -0.63494,3.09836 -0.59999,3.69945 0.25703,4.42059 0.59935,0.50432 0.82877,0.56882 1.59068,0.44724 0.48968,-0.0781 1.21684,-0.33456 1.61593,-0.56982 z m 17.2487,-0.15724 c 0.47343,-0.32978 1.09809,-1.0439 1.38815,-1.58692 0.44156,-0.82666 0.5145,-1.22892 0.44827,-2.47203 -0.0731,-1.37293 -0.14021,-1.54581 -0.89076,-2.29636 -0.75106,-0.75106 -0.92392,-0.818 -2.31539,-0.89663 -1.87382,-0.10588 -3.046,0.41745 -3.93124,1.75513 -0.8249,1.24651 -0.96882,3.65224 -0.28389,4.74541 1.02766,1.64017 3.77778,2.01018 5.58486,0.7514 z m -3.09532,-0.93024 c -1.3928,-0.56117 -1.18792,-3.56778 0.31001,-4.54926 0.78261,-0.51279 1.80524,-0.44555 2.28784,0.15044 0.80253,0.99109 0.3402,3.24321 -0.85953,4.18691 -0.5931,0.46654 -0.98713,0.51457 -1.73832,0.21191 z m 23.90488,1.52468 c 1.03584,-0.28766 2.53963,-1.70968 2.10157,-1.98729 -0.53913,-0.34167 -1.63896,-0.21042 -2.05087,0.24473 -0.58944,0.65133 -1.72007,0.5825 -2.28782,-0.13929 -0.2501,-0.31795 -0.45473,-0.75921 -0.45473,-0.98056 0,-0.3651 0.24955,-0.40819 2.6877,-0.46407 l 2.68771,-0.0616 0.0722,-0.87762 c 0.17443,-2.11961 -0.79793,-3.41628 -2.67879,-3.57226 -1.56828,-0.13005 -2.57528,0.23318 -3.50767,1.26523 -2.37372,2.62742 -1.08887,6.65398 2.16497,6.78474 0.24134,0.01 0.81092,-0.0857 1.26572,-0.212 z m -2.47245,-4.71541 c 0,-0.3528 0.7195,-1.43259 1.08487,-1.62813 0.97085,-0.51958 2.06328,0.0173 2.33033,1.14537 l 0.14284,0.60336 -1.77902,0 c -0.97846,0 -1.77902,-0.0543 -1.77902,-0.1206 z m 10.63617,4.70278 c 0.92186,-0.25594 2.52809,-1.6689 2.52809,-2.22392 0,-0.20608 -0.30298,-0.37716 -0.82276,-0.46458 -0.69239,-0.11645 -0.8923,-0.0559 -1.26158,0.38194 -1.41095,1.67303 -2.97013,0.9242 -2.66783,-1.28129 0.19216,-1.40193 0.69808,-2.26787 1.56712,-2.68229 0.68916,-0.32864 0.78611,-0.32765 1.30651,0.0133 0.30916,0.20257 0.56212,0.52713 0.56212,0.72125 0,0.2863 0.16912,0.33025 0.89574,0.23279 1.14304,-0.15331 1.19694,-0.21999 0.85166,-1.05357 -0.85925,-2.07441 -4.62406,-2.03093 -6.21094,0.0717 -0.97339,1.28979 -1.31734,3.56569 -0.71493,4.73064 0.7739,1.49654 2.18394,2.04891 3.9668,1.55395 z m -53.71157,-0.47729 c 0.96183,-0.50927 1.646,-1.55053 1.77587,-2.70273 0.10005,-0.88767 0.0446,-1.03178 -0.64422,-1.67538 l -0.75369,-0.70418 0.83441,-0.79375 c 0.72614,-0.69076 0.83442,-0.92245 0.83442,-1.78546 0,-1.23024 -0.58795,-2.04569 -1.71216,-2.37466 -0.4505,-0.13183 -1.9812,-0.20732 -3.4436,-0.16984 l -2.63261,0.0675 -1.03236,4.9366 c -0.56779,2.71513 -1.03688,5.12097 -1.04241,5.34631 -0.01,0.38733 0.18473,0.40465 3.55526,0.31686 2.78179,-0.0725 3.71823,-0.17382 4.26109,-0.46126 z m -5.23349,-1.27621 c -0.13701,-0.0854 -0.11858,-0.61758 0.0513,-1.48098 l 0.26515,-1.3477 1.78757,0 c 1.9905,0 2.76283,0.33254 2.76283,1.18958 0,0.27856 -0.19896,0.75941 -0.44213,1.06855 -0.40329,0.51271 -0.60763,0.5683 -2.32648,0.63295 -1.0364,0.039 -1.9806,0.0109 -2.09822,-0.0624 z m 0.88865,-4.68126 c -0.0762,-0.0788 -0.0248,-0.65686 0.1142,-1.28455 l 0.2528,-1.14126 1.67143,-0.0636 c 1.30602,-0.0497 1.74872,0.0137 2.02499,0.28993 0.48157,0.48157 0.44467,0.85005 -0.1549,1.54709 -0.44694,0.51961 -0.70578,0.60351 -2.13919,0.69343 -0.8969,0.0563 -1.6931,0.0378 -1.76933,-0.041 z m 19.00279,4.64998 c 0.69018,-3.21981 1.40221,-4.33323 2.7711,-4.33323 0.46797,0 0.70628,-0.16107 0.95773,-0.64732 0.48647,-0.94073 0.42225,-1.10792 -0.42554,-1.10792 -0.53754,0 -0.9875,0.1995 -1.53583,0.68094 l -0.77555,0.68094 0,-0.57123 c 0,-0.51972 -0.0788,-0.57124 -0.87344,-0.57124 -0.7244,0 -0.89367,0.0842 -0.99197,0.49366 -0.34886,1.45282 -1.42566,6.67071 -1.42566,6.90833 0,0.18085 0.33205,0.27716 0.95558,0.27716 l 0.95558,0 0.388,-1.81009 z m 21.94736,1.31643 c 0.0662,-0.27151 0.49439,-2.27084 0.95149,-4.44294 l 0.83109,-3.94928 1.57406,-0.0644 c 1.51164,-0.0619 1.57922,-0.088 1.70387,-0.65821 0.0714,-0.32658 0.16783,-0.7172 0.2143,-0.86804 0.0656,-0.21288 -0.86753,-0.27425 -4.16958,-0.27425 l -4.25406,0 -0.1434,0.65286 c -0.0789,0.35907 -0.0809,0.754 -0.004,0.87761 0.0764,0.12362 0.77672,0.22476 1.55627,0.22476 1.35721,0 1.41254,0.0209 1.30386,0.49366 -0.41212,1.79251 -1.65011,7.93908 -1.65011,8.19269 0,0.22003 0.28359,0.30923 0.98314,0.30923 0.83761,0 1.00096,-0.0731 1.10354,-0.49366 z m 23.5464,-1.86562 c 0.28121,-1.29685 0.70169,-2.66718 0.93441,-3.04516 0.48327,-0.78494 1.48969,-1.28534 2.15831,-1.07312 0.589,0.18694 0.59224,0.93529 0.0162,3.73501 -0.58829,2.85915 -0.61056,2.74255 0.52375,2.74255 l 0.96255,0 0.58476,-3.04258 c 0.62038,-3.22793 0.59142,-3.99845 -0.17031,-4.53199 -0.66548,-0.46612 -2.3093,-0.40769 -3.16233,0.11242 l -0.71306,0.43476 0.008,-0.49044 c 0.004,-0.26973 0.1401,-1.1075 0.30191,-1.86171 l 0.2942,-1.37127 -1.01497,4.3e-4 -1.01497,4.4e-4 -1.10782,5.37492 -1.10781,5.37492 0.99811,-6.6e-4 0.99811,-6.6e-4 0.51128,-2.35791 z m 8.9142,1.86562 c 0.96553,-4.36698 1.06344,-4.66373 1.77282,-5.37312 0.78363,-0.78363 1.6246,-0.92974 2.09423,-0.36387 0.24475,0.2949 0.20964,0.75712 -0.21817,2.87175 -0.28044,1.38615 -0.55923,2.70896 -0.61954,2.93958 -0.0962,0.36792 0.014,0.41932 0.89908,0.41932 0.86555,0 1.02514,-0.0701 1.12438,-0.49366 0.47989,-2.04839 0.98973,-4.96294 0.98973,-5.65789 0,-1.60766 -1.86245,-2.26089 -3.72987,-1.3082 -1.02999,0.52546 -1.18358,0.54202 -1.01768,0.1097 0.10064,-0.26228 -0.0728,-0.3291 -0.85415,-0.3291 -0.53924,0 -0.98043,0.0404 -0.98043,0.0898 0,0.0494 -0.34556,1.72987 -0.76792,3.73437 -0.42235,2.0045 -0.76791,3.69189 -0.76791,3.74975 0,0.0579 0.44241,0.1052 0.98314,0.1052 0.84094,0 0.99892,-0.0714 1.09229,-0.49366 z m 9.47426,-0.93247 c 0.14743,-0.72403 0.50903,-2.42716 0.80356,-3.78472 l 0.53551,-2.4683 -1.02691,0 -1.02691,0 -0.72441,3.55541 c -0.39842,1.95547 -0.77575,3.68921 -0.83851,3.85276 -0.0884,0.23025 0.12554,0.282 0.94776,0.22932 l 1.06186,-0.068 0.26805,-1.31643 z m 4.13049,0.38396 c 0.10747,-0.7354 0.35351,-1.25207 0.83587,-1.75524 0.37596,-0.39218 0.75996,-0.71306 0.85333,-0.71306 0.0934,0 0.40195,0.76517 0.68573,1.70038 l 0.51598,1.70039 1.01584,0.0664 1.01584,0.0664 -0.7573,-2.24875 c -0.41651,-1.2368 -0.75799,-2.40212 -0.75883,-2.58958 0,-0.18747 0.61622,-0.90427 1.37128,-1.59288 l 1.37281,-1.25203 -1.31006,-0.01 c -1.30432,-0.01 -1.31564,-0.004 -2.578,1.24516 -0.69737,0.69009 -1.26743,1.1097 -1.26681,0.93247 6.6e-4,-0.17723 0.23798,-1.43799 0.52745,-2.8017 l 0.52631,-2.47946 -1.02111,0.066 -1.0211,0.066 -0.48029,2.30374 c -0.26416,1.26706 -0.76835,3.66131 -1.12042,5.32056 l -0.64012,3.01681 1.04065,0 1.04065,0 0.1523,-1.04217 z m -2.4348,-8.44707 c 0.29849,-1.11384 0.19907,-1.26157 -0.84904,-1.26157 -0.54302,0 -0.98731,0.0864 -0.98731,0.19197 0,0.10559 -0.0617,0.50052 -0.13713,0.87762 l -0.13713,0.68564 0.98916,0 c 0.84032,0 1.00906,-0.0743 1.12145,-0.49366 z m -72.30611,-0.54851 c 0.0656,-0.68021 0.0338,-0.71306 -0.68959,-0.71306 -0.7787,0 -1.02469,0.27083 -1.02469,1.12821 0,0.36747 0.12629,0.42365 0.82277,0.36601 0.75114,-0.0622 0.82875,-0.13017 0.89151,-0.78116 z m 3.11262,0.4019 c 0,-0.23147 0.0599,-0.57704 0.13317,-0.76791 0.10773,-0.28074 -0.0341,-0.34705 -0.74232,-0.34705 -0.72246,0 -0.89863,0.0863 -1.0078,0.49366 -0.24911,0.92955 -0.16922,1.04217 0.73933,1.04217 0.71887,0 0.87762,-0.0761 0.87762,-0.42087 z M 57.084454,145.13337 c -2.26807,-0.21269 -4.1691,-0.43205 -4.22453,-0.48747 -0.0554,-0.0554 0.008,-0.41298 0.14109,-0.79456 0.28896,-0.82891 0.18198,-0.82235 4.64653,-0.28482 1.78248,0.21461 3.16473,0.32137 3.07166,0.23725 -0.0931,-0.0841 -1.40336,-1.06523 -2.91177,-2.18025 -1.5084,-1.11501 -2.77708,-2.05861 -2.81927,-2.09688 -0.0422,-0.0383 0.0395,-0.42175 0.18157,-0.85219 0.3114,-0.94356 0.15043,-0.93442 4.57076,-0.25962 1.84755,0.28204 3.27916,0.43754 3.18136,0.34556 -0.0978,-0.092 -1.41197,-1.12828 -2.92037,-2.30287 -1.50841,-1.17459 -2.77753,-2.16544 -2.82027,-2.20188 -0.20409,-0.17401 0.37466,-1.3004 0.66817,-1.3004 0.18397,0 1.92692,1.35698 3.87322,3.0155 l 3.53873,3.01551 -0.36682,0.76922 c -0.20175,0.42307 -0.42258,0.76644 -0.49073,0.76304 -0.0682,-0.003 -1.67895,-0.23341 -3.57954,-0.51114 -1.90059,-0.27773 -3.45562,-0.48302 -3.45562,-0.4562 0,0.0268 1.28352,1.00793 2.85226,2.18025 1.56874,1.17231 2.85226,2.18791 2.85226,2.25688 0,0.069 -0.11857,0.4533 -0.26348,0.85405 -0.31053,0.85875 0.10421,0.83766 -5.72521,0.29102 z m 5.67057,-12.55901 c -2.52807,-0.22089 -4.64382,-0.44894 -4.70166,-0.50678 -0.0578,-0.0578 0.0626,-0.45691 0.26757,-0.88682 0.32255,-0.67639 0.45341,-0.76596 0.97179,-0.66521 1.26487,0.24585 6.452,0.82856 6.54528,0.73528 0.0539,-0.0539 -1.18785,-1.04743 -2.75953,-2.20776 -1.57167,-1.16034 -2.85759,-2.21598 -2.85759,-2.34587 0,-0.1299 0.14241,-0.51157 0.31647,-0.84817 l 0.31647,-0.61199 3.55865,0.51421 c 1.95726,0.28281 3.59217,0.48069 3.63313,0.43973 0.041,-0.041 -1.20919,-1.08306 -2.7781,-2.31577 -1.56892,-1.23271 -2.85258,-2.33043 -2.85258,-2.43937 0,-0.3699 0.51358,-1.32743 0.67934,-1.26659 0.0907,0.0333 1.79315,1.44128 3.7832,3.12885 l 3.61828,3.06832 -0.31755,0.75999 c -0.17465,0.41799 -0.33907,0.77712 -0.36538,0.79806 -0.0263,0.0209 -1.62134,-0.19412 -3.5445,-0.47792 -1.92316,-0.28379 -3.52457,-0.48808 -3.55868,-0.45397 -0.0341,0.0341 1.16971,0.9804 2.67515,2.10286 1.50545,1.12246 2.78479,2.11788 2.84299,2.21205 0.15923,0.25764 -0.32089,1.49087 -0.61733,1.58567 -0.1424,0.0456 -2.32734,-0.0979 -4.85542,-0.3188 z M 232.08944,121.77012 c -7.42793,-1.34787 -12.48471,-6.10323 -13.79995,-12.97737 -0.40379,-2.11044 -0.40725,-6.69639 -0.007,-8.967567 0.80826,-4.58367 2.32952,-9.03978 4.75068,-13.91586 6.72252,-13.53879 17.69987,-22.72291 30.48272,-25.50316 1.97022,-0.42852 2.92314,-0.49977 6.58213,-0.49215 3.89309,0.008 4.46736,0.0599 6.37668,0.57459 3.72812,1.00506 6.55944,2.73507 8.79978,5.37687 1.3457,1.58686 2.21353,3.25069 2.95345,5.66244 0.55796,1.81861 0.60498,2.26154 0.61659,5.80832 0.0105,3.22309 -0.0695,4.22283 -0.49831,6.22653 -1.35818,6.3456 -4.53182,13.52013 -8.55241,19.334077 -7.10003,10.26695 -17.30998,17.18293 -27.82282,18.84654 -2.65632,0.42035 -7.63835,0.43383 -9.88178,0.0267 z m 11.67195,-14.05484 c 6.45036,-1.66511 12.58097,-8.290407 16.30875,-17.624747 2.61424,-6.54603 3.1452,-11.76585 1.45697,-14.32337 -0.3437,-0.52067 -0.97438,-1.01913 -1.80138,-1.42375 -1.13076,-0.55323 -1.50476,-0.62182 -3.35711,-0.61569 -4.34502,0.0144 -8.28283,1.96518 -12.12567,6.00708 -2.9463,3.09892 -5.40087,7.10279 -7.48857,12.21528 -1.66386,4.07457 -2.17318,6.30752 -2.19662,9.630327 -0.0178,2.52758 0.0338,2.95216 0.45346,3.72987 0.62907,1.16582 1.54066,2.00326 2.60462,2.39275 1.17397,0.42978 4.50243,0.43641 6.14555,0.0122 z M 118.9664,121.0536 c -2.02126,-0.0366 -3.67502,-0.11729 -3.67502,-0.17936 0,-0.093 6.7234,-16.76415 22.24844,-55.166437 l 1.99574,-4.9366 20.04457,-0.056 c 19.03299,-0.0532 20.03756,-0.0366 19.9058,0.3291 -0.0763,0.21182 -1.3427,3.37176 -2.81416,7.0221 l -2.67539,6.63698 -12.09857,0 -12.09857,0 -1.63485,4.00413 -1.63486,4.00413 4.07247,0.13595 c 2.23985,0.0748 7.16449,0.14882 10.94363,0.16456 6.43812,0.0268 6.8633,0.0528 6.74617,0.41256 -0.0688,0.21117 -1.3028,3.29655 -2.74234,6.85638 l -2.61735,6.47243 -11.0532,0.0568 -11.05319,0.0568 -2.01916,4.989467 c -1.11053,2.7442 -2.01789,5.06351 -2.01636,5.15401 0.002,0.0905 5.58116,0.16456 12.39915,0.16456 9.77175,0 12.39597,0.0581 12.39459,0.27425 -8.8e-4,0.15084 -1.21889,3.28558 -2.7065,6.96609 l -2.70474,6.69183 -16.76564,0.006 c -9.2211,0.003 -18.4194,-0.0236 -20.44066,-0.0602 z m 49.61999,-0.54844 c 1.5042,-3.93486 23.82688,-59.371517 23.98681,-59.569407 0.26852,-0.33225 15.96503,-0.40578 15.96503,-0.0748 0,0.20566 -2.51276,6.47596 -12.66905,31.61417 l -5.89478,14.590387 12.43761,0.10971 12.43761,0.1097 -2.55233,6.80153 -2.55233,6.80154 -20.67386,0.056 -20.67386,0.056 0.18915,-0.49478 z M 67.312634,119.92712 c -2.07283,-0.19555 -3.82577,-0.41359 -3.89542,-0.48452 -0.20325,-0.20699 0.33124,-1.51656 0.61897,-1.51656 0.22389,0 2.29118,0.24875 6.4967,0.78172 l 0.98732,0.12512 -3.01681,-2.22783 c -1.65924,-1.22531 -3.01681,-2.32284 -3.01681,-2.43896 0,-0.11611 0.15402,-0.50896 0.34227,-0.87298 0.28442,-0.55001 0.442,-0.64222 0.93246,-0.54566 0.32462,0.0639 1.72563,0.26905 3.11336,0.45586 1.38773,0.18681 2.81248,0.38898 3.16611,0.44928 0.61408,0.10471 -0.37275,-0.75116 -4.70662,-4.08201 -0.70982,-0.54554 -0.72652,-0.59242 -0.44935,-1.26157 0.15832,-0.38224 0.35548,-0.69497 0.43812,-0.69497 0.0826,0 1.78996,1.39116 3.79404,3.09147 l 3.64377,3.09148 -0.28844,0.686 c -0.15864,0.3773 -0.39169,0.72042 -0.51788,0.76248 -0.12619,0.0421 -1.62487,-0.12745 -3.33039,-0.37671 -1.70553,-0.24925 -3.25659,-0.45319 -3.4468,-0.45319 -0.19022,0 0.92843,0.95301 2.48588,2.1178 1.55745,1.16479 2.86548,2.14472 2.90673,2.17762 0.0412,0.0329 -0.0526,0.41277 -0.20863,0.84416 -0.27128,0.75021 -0.32705,0.7831 -1.28172,0.75593 -0.54895,-0.0156 -2.69404,-0.1884 -4.76686,-0.38396 z m 8.92477,-9.86121 c -0.42236,-0.19433 -0.80856,-0.38072 -0.85825,-0.41419 -0.21174,-0.14268 0.51692,-1.81828 0.79071,-1.81828 0.16557,0 0.64093,0.14202 1.05636,0.31559 l 0.75532,0.31559 -0.34391,0.83629 c -0.46807,1.13818 -0.52344,1.16843 -1.40023,0.765 z m -1.6537,-5.21448 c -1.93721,-0.68783 -3.37736,-2.52435 -3.38778,-4.32024 -0.009,-1.522567 0.93084,-3.120917 2.23318,-3.798517 1.14113,-0.59373 4.98673,-0.24161 4.7064,0.43095 -0.0569,0.13646 -0.65651,1.57157 -1.33252,3.189127 -0.676,1.61756 -1.1867,2.98343 -1.13487,3.03526 0.0518,0.0518 0.47264,0.14048 0.93513,0.19701 1.07984,0.13199 2.1751,-0.52431 2.60932,-1.56356 0.42665,-1.02113 0.39785,-1.57309 -0.12636,-2.421277 -0.3502,-0.56664 -0.397,-0.83463 -0.22483,-1.28747 0.27289,-0.71775 0.46246,-0.71667 1.18591,0.007 1.25404,1.25405 1.26129,3.284977 0.0185,5.176377 -1.02966,1.567 -3.3032,2.12919 -5.48205,1.35557 z m 0.62069,-4.58745 1.00125,-2.303737 -0.99338,0 c -0.83719,0 -1.11067,0.11729 -1.73936,0.74597 -0.6256,0.62561 -0.74597,0.90405 -0.74597,1.725647 0,1.01407 0.6265,2.13587 1.19283,2.13587 0.15586,0 0.73394,-1.03669 1.28463,-2.30375 z m 1.47182,-5.622597 c -3.19782,-1.33534 -5.83718,-2.44959 -5.86525,-2.47609 -0.11535,-0.10894 0.49023,-1.4454 0.65493,-1.4454 0.20801,0 11.57465,4.75537 11.72427,4.90499 0.0895,0.0895 -0.52838,1.46763 -0.65052,1.45106 -0.0271,-0.004 -2.66561,-1.09922 -5.86343,-2.43456 z m 3.22359,-2.37951 c -2.77022,-1.08239 -3.95012,-3.19922 -3.19256,-5.72771 0.52035,-1.7368 2.40331,-3.25751 4.04793,-3.2692 1.00893,-0.007 2.65252,0.54517 3.62249,1.21736 1.77686,1.23137 2.38595,3.32909 1.52909,5.26618 -1.15999,2.62236 -3.36585,3.54532 -6.00695,2.51337 z m 3.52592,-1.7607 c 2.60443,-1.58793 1.12298,-5.03717 -2.31837,-5.39784 -1.24555,-0.13054 -1.92405,0.18681 -2.63335,1.23167 -0.98833,1.45589 -0.20854,3.24805 1.82238,4.18834 1.14206,0.52876 2.23849,0.52099 3.12934,-0.0222 z m 1.40065,-7.48235 c -2.05024,-0.39139 -4.01231,-2.15053 -4.33862,-3.8899 -0.17704,-0.94375 0.20162,-2.49387 0.82206,-3.3652 0.97362,-1.36733 3.55027,-1.93587 5.35533,-1.18167 0.66966,0.2798 0.73612,0.37747 0.55993,0.82277 -0.10995,0.2779 -0.69391,1.68917 -1.29768,3.13614 -1.18832,2.8479 -1.18079,2.95471 0.20847,2.96059 1.95266,0.008 3.39559,-2.74974 2.1386,-4.08774 -0.41845,-0.44543 -0.43922,-0.57106 -0.19278,-1.16602 0.33867,-0.81761 0.43096,-0.82268 1.15527,-0.0634 1.16194,1.21798 1.32962,2.61006 0.52303,4.34221 -0.96875,2.08037 -2.64788,2.9286 -4.93361,2.49226 z m -0.24132,-5.15936 0.8378,-2.05906 -0.76404,0 c -2.06848,0 -3.31206,1.94253 -2.3878,3.72986 0.18101,0.35003 0.50186,0.73309 0.713,0.85125 0.46403,0.25969 0.47839,0.23708 1.60104,-2.52205 z m 6.1891,-3.48268 c -0.64815,-0.28173 -0.69231,-0.36082 -0.49348,-0.8838 0.55537,-1.46074 0.57493,-1.47315 1.54238,-0.9796 0.47832,0.24402 0.86968,0.49421 0.86968,0.55597 0,0.0618 -0.14306,0.45468 -0.31791,0.87316 -0.34997,0.83757 -0.54876,0.8915 -1.60067,0.43427 z m 0.93126,-4.22226 c -0.80942,-0.20267 -1.61181,-0.93719 -1.86637,-1.70849 -0.20156,-0.61075 -0.17911,-1.13431 0.11144,-2.59853 0.20012,-1.00852 0.33129,-2.11896 0.29148,-2.46766 -0.0637,-0.55793 -0.17055,-0.64214 -0.89049,-0.70182 -0.72278,-0.0599 -0.86971,0.0168 -1.26094,0.65821 -0.71387,1.17041 -0.79577,2.08489 -0.25253,2.81966 0.54782,0.74096 0.57878,1.06991 0.15521,1.64916 -0.30473,0.41675 -0.32419,0.41411 -0.90589,-0.12262 -1.28433,-1.18504 -1.44954,-2.7836 -0.48749,-4.71719 1.23091,-2.47395 2.09535,-2.61065 6.088,-0.96277 2.43375,1.00448 2.74444,1.08465 2.97604,0.76791 0.31337,-0.42856 0.55188,-0.44357 1.06665,-0.0672 0.36382,0.26603 0.36751,0.34462 0.0516,1.10057 -0.25122,0.60125 -0.50471,0.84699 -0.96963,0.93997 -0.61562,0.12312 -0.62733,0.15202 -0.53127,1.3104 0.08,0.96462 -0.009,1.40479 -0.48233,2.37113 -0.74632,1.52543 -1.72425,2.07207 -3.09354,1.72923 z m 1.88645,-2.55837 c 0.54894,-0.90021 0.54231,-2.32846 -0.0141,-3.03579 -0.39291,-0.49951 -1.69449,-1.22371 -1.83554,-1.02129 -0.21903,0.31433 -0.69265,3.47895 -0.587,3.9222 0.1511,0.63397 0.93913,1.09942 1.57835,0.93227 0.24345,-0.0637 0.62967,-0.42249 0.85828,-0.79739 z m 2.39193,-7.23322 c -0.42235,-0.15361 -1.84513,-0.71699 -3.16173,-1.25194 -1.49666,-0.60811 -2.4247,-0.88152 -2.47621,-0.7295 -0.2468,0.72829 -0.67241,1.02429 -1.26055,0.87668 -0.60812,-0.15263 -0.64336,-0.37487 -0.23525,-1.4834 0.0709,-0.19261 -0.30865,-0.47497 -1.09609,-0.81541 -0.6625,-0.28642 -1.20456,-0.61379 -1.20456,-0.72749 0,-0.17357 0.37817,-1.01842 0.54971,-1.22808 0.0283,-0.0346 0.56161,0.13819 1.18513,0.38396 0.62351,0.24577 1.20891,0.44685 1.30087,0.44685 0.092,0 0.2898,-0.33902 0.43963,-0.75339 0.26032,-0.71988 0.30206,-0.74305 0.93862,-0.52114 0.68915,0.24024 0.6822,0.20247 0.29516,1.60363 -0.12347,0.44699 0.42605,0.7283 4.56719,2.33806 l 1.04865,0.40763 0.44472,-0.75375 c 0.41351,-0.70084 0.49006,-0.73794 1.09055,-0.52861 0.3552,0.12382 0.64582,0.26812 0.64582,0.32067 0,0.37628 -1.17888,2.30335 -1.52111,2.48651 -0.52232,0.27954 -0.59522,0.27619 -1.55055,-0.0713 z m 148.761686,-5.2414 c 0.003,-0.15084 1.12189,-2.89065 2.48633,-6.08847 l 2.4808,-5.81421 7.27466,-0.0578 7.27467,-0.0578 -0.38146,0.95232 c -0.20979,0.52377 -1.36877,3.28858 -2.5755,6.14402 l -2.19404,5.1917 -7.1855,0.002 c -5.60625,0.002 -7.18427,-0.058 -7.17996,-0.272 z m 23.12752,-0.1097 c 0.0784,-0.21117 1.24025,-2.97567 2.58193,-6.14332 l 2.43938,-5.75937 7.20505,0 c 3.96277,0 7.20504,0.0799 7.20504,0.17755 0,0.0977 -1.09364,2.73874 -2.43034,5.86907 -1.33668,3.13034 -2.48267,5.81493 -2.54663,5.96577 -0.0897,0.21152 -1.77263,0.27426 -7.35663,0.27426 -6.8036,0 -7.23174,-0.0232 -7.0978,-0.38396 z"
       id="path4274"
       inkscape:connector-curvature="0" />
  </g>
</svg>
