<?xml version="1.0" encoding="UTF-8" standalone="no"?>
<!-- Created with Inkscape (http://www.inkscape.org/) -->

<svg
   xmlns:dc="http://purl.org/dc/elements/1.1/"
   xmlns:cc="http://creativecommons.org/ns#"
   xmlns:rdf="http://www.w3.org/1999/02/22-rdf-syntax-ns#"
   xmlns:svg="http://www.w3.org/2000/svg"
   xmlns="http://www.w3.org/2000/svg"
   xmlns:sodipodi="http://sodipodi.sourceforge.net/DTD/sodipodi-0.dtd"
   xmlns:inkscape="http://www.inkscape.org/namespaces/inkscape"
   viewBox="0 0 472.47656 488.9072"
   id="svg3644"
   version="1.1"
   inkscape:version="0.48.5 r10040"
   sodipodi:docname="logo.svg">
  <defs
     id="defs3">
    <filter
       color-interpolation-filters="sRGB"
       inkscape:label="Drop Shadow"
       id="filter3529">
      <feFlood
         flood-opacity="0.7"
         flood-color="rgb(0,0,0)"
         result="flood"
         id="feFlood3531" />
      <feComposite
         in="flood"
         in2="SourceGraphic"
         operator="in"
         result="composite1"
         id="feComposite3533" />
      <feGaussianBlur
         stdDeviation="3"
         result="blur"
         id="feGaussianBlur3535" />
      <feOffset
         dx="6"
         dy="6"
         result="offset"
         id="feOffset3537" />
      <feComposite
         in="SourceGraphic"
         in2="offset"
         operator="over"
         result="composite2"
         id="feComposite3539" />
    </filter>
    <filter
       color-interpolation-filters="sRGB"
       inkscape:label="Drop Shadow"
       id="filter3589">
      <feFlood
         flood-opacity="0.7"
         flood-color="rgb(0,0,0)"
         result="flood"
         id="feFlood3591" />
      <feComposite
         in="flood"
         in2="SourceGraphic"
         operator="in"
         result="composite1"
         id="feComposite3593" />
      <feGaussianBlur
         stdDeviation="3"
         result="blur"
         id="feGaussianBlur3595" />
      <feOffset
         dx="6"
         dy="6"
         result="offset"
         id="feOffset3597" />
      <feComposite
         in="SourceGraphic"
         in2="offset"
         operator="over"
         result="composite2"
         id="feComposite3599" />
    </filter>
  </defs>
  <sodipodi:namedview
     inkscape:document-units="mm"
     id="base"
     pagecolor="#ffffff"
     bordercolor="#666666"
     borderopacity="1.0"
     inkscape:pageopacity="0.0"
     inkscape:pageshadow="2"
     inkscape:zoom="0.98994949"
     inkscape:cx="36.336935"
     inkscape:cy="214.685"
     inkscape:current-layer="layer1"
     showgrid="false"
     units="mm"
     fit-margin-top="0"
     fit-margin-left="0"
     fit-margin-right="0"
     fit-margin-bottom="0"
     inkscape:window-width="1280"
     inkscape:window-height="712"
     inkscape:window-x="-4"
     inkscape:window-y="-4"
     inkscape:window-maximized="1" />
  <metadata
     id="metadata4">
    <rdf:RDF>
      <cc:Work
         rdf:about="">
        <dc:format>image/svg+xml</dc:format>
        <dc:type
           rdf:resource="http://purl.org/dc/dcmitype/StillImage" />
        <dc:title></dc:title>
      </cc:Work>
    </rdf:RDF>
  </metadata>
  <g
     inkscape:label="Layer 1"
     inkscape:groupmode="layer"
     id="layer1"
     transform="translate(-503.76172,-362.19432)">
    <g
       style="font-size:40px;font-style:normal;font-weight:normal;text-align:center;line-height:125%;letter-spacing:0px;word-spacing:0px;text-anchor:middle;fill:#000000;fill-opacity:1;stroke:none;filter:url(#filter3589);font-family:Sans"
       id="text3011">
      <path
         d="m 543.13477,778.7265 c -10e-6,-4.75258 1.27603,-8.47328 3.82812,-11.16211 2.55208,-2.68877 5.84634,-4.03317 9.88281,-4.0332 2.64321,3e-5 5.02602,0.63154 7.14844,1.89453 2.12237,1.26305 3.74021,3.02411 4.85352,5.2832 1.11325,2.25914 1.66989,4.82098 1.66992,7.68555 -3e-5,2.90366 -0.58597,5.50131 -1.75781,7.79297 -1.17191,2.29167 -2.83206,4.02669 -4.98047,5.20508 -2.14846,1.17838 -4.46617,1.76757 -6.95313,1.76758 -2.69532,-1e-5 -5.10418,-0.65105 -7.22656,-1.95313 -2.1224,-1.30208 -3.73047,-3.07942 -4.82422,-5.33203 -1.09375,-2.2526 -1.64063,-4.63541 -1.64062,-7.14844 z m 3.90625,0.0586 c -10e-6,3.45053 0.92772,6.16862 2.7832,8.15429 1.85546,1.98568 4.18293,2.97852 6.98242,2.97852 2.85154,0 5.19855,-1.0026 7.04102,-3.00781 1.84242,-2.00521 2.76364,-4.85025 2.76367,-8.53516 -3e-5,-2.33071 -0.39391,-4.36522 -1.18164,-6.10352 -0.78779,-1.73826 -1.94013,-3.08591 -3.45703,-4.04297 -1.51695,-0.957 -3.21942,-1.43552 -5.10743,-1.43554 -2.6823,2e-5 -4.99024,0.92125 -6.92382,2.76367 -1.9336,1.84247 -2.9004,4.91864 -2.90039,9.22852 z"
         style=""
         id="path3714" />
      <path
         d="m 574.89258,792.67181 0,-20.74218 3.16406,0 0,3.14453 c 0.80729,-1.47134 1.55273,-2.44139 2.23633,-2.91016 0.68358,-0.46873 1.43554,-0.7031 2.25586,-0.70312 1.18488,2e-5 2.38931,0.37762 3.61328,1.13281 l -1.21094,3.26172 c -0.85938,-0.5078 -1.71876,-0.7617 -2.57812,-0.76172 -0.76824,2e-5 -1.45835,0.23114 -2.07032,0.69336 -0.61198,0.46225 -1.04818,1.10353 -1.30859,1.92383 -0.39063,1.25001 -0.58594,2.6172 -0.58594,4.10156 l 0,10.85937 z"
         style=""
         id="path3716" />
      <path
         d="m 601.82617,785.07416 3.45703,0.44922 c -0.37762,2.38281 -1.34442,4.24805 -2.90039,5.5957 -1.556,1.34766 -3.46681,2.02148 -5.73242,2.02148 -2.83855,0 -5.12045,-0.92773 -6.8457,-2.7832 -1.72527,-1.85546 -2.58789,-4.51497 -2.58789,-7.97851 0,-2.23958 0.37109,-4.19921 1.11328,-5.87891 0.74218,-1.67967 1.87174,-2.93944 3.38867,-3.7793 1.51692,-0.83982 3.16731,-1.25974 4.95117,-1.25976 2.25259,2e-5 4.09504,0.56968 5.52735,1.70898 1.43227,1.13934 2.35024,2.75718 2.7539,4.85352 l -3.41797,0.52734 c -0.32553,-1.39321 -0.9017,-2.44139 -1.72851,-3.14453 -0.82684,-0.70311 -1.82619,-1.05467 -2.99805,-1.05469 -1.77084,2e-5 -3.20964,0.63478 -4.31641,1.9043 -1.10677,1.26954 -1.66016,3.27801 -1.66015,6.02539 -10e-6,2.78646 0.53385,4.8112 1.60156,6.07422 1.0677,1.26302 2.46093,1.89453 4.17969,1.89453 1.38019,0 2.53254,-0.42318 3.45703,-1.26953 0.92446,-0.84635 1.5104,-2.14843 1.75781,-3.90625 z"
         style=""
         id="path3718" />
      <path
         d="m 608.29102,792.67181 0,-28.63281 3.51562,0 0,10.27344 c 1.64062,-1.90102 3.71093,-2.85154 6.21094,-2.85156 1.53644,2e-5 2.87108,0.30275 4.0039,0.9082 1.1328,0.60549 1.94335,1.44208 2.43164,2.50977 0.48827,1.06772 0.73241,2.6172 0.73243,4.64843 l 0,13.14453 -3.51563,0 0,-13.14453 c -1e-5,-1.75779 -0.38087,-3.03709 -1.14258,-3.83789 -0.76173,-0.80076 -1.8392,-1.20115 -3.23242,-1.20117 -1.04168,2e-5 -2.02149,0.2702 -2.93945,0.81055 -0.91798,0.54038 -1.57227,1.2728 -1.96289,2.19726 -0.39063,0.9245 -0.58595,2.20054 -0.58594,3.82813 l 0,11.34765 z"
         style=""
         id="path3720" />
      <path
         d="m 630.57617,768.08197 0,-4.04297 3.51563,0 0,4.04297 z m 0,24.58984 0,-20.74218 3.51563,0 0,20.74218 z"
         style=""
         id="path3722" />
      <path
         d="m 652.91992,792.67181 0,-2.61718 c -1.31512,2.05729 -3.24871,3.08593 -5.80078,3.08593 -1.65365,0 -3.17383,-0.45573 -4.56055,-1.36718 -1.38672,-0.91146 -2.46094,-2.18425 -3.22265,-3.81836 -0.76172,-1.63411 -1.14258,-3.51236 -1.14258,-5.63477 0,-2.0703 0.34505,-3.94855 1.03516,-5.63476 0.6901,-1.68618 1.72525,-2.9785 3.10546,-3.87696 1.38021,-0.89841 2.92317,-1.34763 4.62891,-1.34765 1.24999,2e-5 2.36327,0.26369 3.33984,0.79101 0.97655,0.52737 1.77082,1.21421 2.38282,2.06055 l 0,-10.27344 3.49609,0 0,28.63281 z m -11.11328,-10.35156 c 0,2.65626 0.55989,4.64193 1.67969,5.95703 1.11978,1.31511 2.4414,1.97266 3.96484,1.97266 1.53645,0 2.84179,-0.62825 3.91602,-1.88477 1.0742,-1.2565 1.61131,-3.17382 1.61133,-5.75195 -2e-5,-2.83853 -0.54689,-4.92186 -1.64063,-6.25 -1.09376,-1.32811 -2.44142,-1.99217 -4.04297,-1.99219 -1.56251,2e-5 -2.86784,0.63804 -3.91601,1.91407 -1.04819,1.27605 -1.57227,3.28777 -1.57227,6.03515 z"
         style=""
         id="path3724" />
      <path
         d="m 675.92773,785.99213 3.63282,0.44922 c -0.57294,2.1224 -1.63414,3.76953 -3.1836,4.9414 -1.54949,1.17188 -3.52866,1.75781 -5.9375,1.75781 -3.03386,0 -5.43946,-0.93424 -7.21679,-2.80273 -1.77735,-1.86849 -2.66602,-4.48893 -2.66602,-7.86133 0,-3.48957 0.89844,-6.1979 2.69531,-8.125 1.79687,-1.92706 4.1276,-2.8906 6.99219,-2.89062 2.77342,2e-5 5.03905,0.94403 6.79688,2.83203 1.75779,1.88804 2.63669,4.54428 2.63671,7.96875 -2e-5,0.20834 -0.007,0.52084 -0.0195,0.9375 l -15.46875,0 c 0.13021,2.27865 0.77474,4.02344 1.9336,5.23437 1.15884,1.21094 2.60415,1.81641 4.33593,1.81641 1.28905,0 2.38931,-0.33854 3.30079,-1.01563 0.91144,-0.67708 1.63409,-1.7578 2.16796,-3.24218 z m -11.54296,-5.6836 11.58203,0 c -0.15627,-1.74477 -0.59898,-3.05337 -1.32813,-3.92578 -1.1198,-1.35415 -2.57163,-2.03123 -4.35547,-2.03125 -1.61459,2e-5 -2.97201,0.54038 -4.07226,1.6211 -1.10027,1.08074 -1.70899,2.52605 -1.82617,4.33593 z"
         style=""
         id="path3726" />
      <path
         d="m 698.19336,785.99213 3.63281,0.44922 c -0.57293,2.1224 -1.63413,3.76953 -3.18359,4.9414 -1.5495,1.17188 -3.52866,1.75781 -5.9375,1.75781 -3.03386,0 -5.43946,-0.93424 -7.2168,-2.80273 -1.77734,-1.86849 -2.66602,-4.48893 -2.66601,-7.86133 -10e-6,-3.48957 0.89843,-6.1979 2.69531,-8.125 1.79687,-1.92706 4.12759,-2.8906 6.99219,-2.89062 2.77342,2e-5 5.03904,0.94403 6.79687,2.83203 1.75779,1.88804 2.6367,4.54428 2.63672,7.96875 -2e-5,0.20834 -0.007,0.52084 -0.0195,0.9375 l -15.46875,0 c 0.1302,2.27865 0.77473,4.02344 1.93359,5.23437 1.15885,1.21094 2.60416,1.81641 4.33594,1.81641 1.28905,0 2.38931,-0.33854 3.30078,-1.01563 0.91144,-0.67708 1.6341,-1.7578 2.16797,-3.24218 z m -11.54297,-5.6836 11.58203,0 c -0.15626,-1.74477 -0.59897,-3.05337 -1.32812,-3.92578 -1.11981,-1.35415 -2.57163,-2.03123 -4.35547,-2.03125 -1.61459,2e-5 -2.97202,0.54038 -4.07227,1.6211 -1.10026,1.08074 -1.70899,2.52605 -1.82617,4.33593 z"
         style=""
         id="path3728" />
      <path
         d="m 706.25977,792.67181 0,-20.74218 3.16406,0 0,2.94922 c 1.52343,-2.27863 3.72395,-3.41795 6.60156,-3.41797 1.24999,2e-5 2.39907,0.22463 3.44727,0.67382 1.04816,0.44924 1.83266,1.03844 2.35351,1.76758 0.52082,0.72919 0.8854,1.59507 1.09375,2.59766 0.13019,0.65106 0.19529,1.79038 0.19531,3.41797 l 0,12.7539 -3.51562,0 0,-12.61718 c -2e-5,-1.43228 -0.13674,-2.50324 -0.41016,-3.21289 -0.27345,-0.70962 -0.75848,-1.27603 -1.45508,-1.69922 -0.69662,-0.42316 -1.51368,-0.63475 -2.45117,-0.63477 -1.4974,2e-5 -2.78972,0.47528 -3.87695,1.42578 -1.08725,0.95054 -1.63087,2.75392 -1.63086,5.41016 l 0,11.32812 z"
         style=""
         id="path3730" />
      <path
         d="m 734.28711,792.67181 -7.89063,-20.74218 3.71094,0 4.45313,12.42187 c 0.48176,1.34115 0.92447,2.73438 1.32812,4.17969 0.31249,-1.09375 0.74869,-2.40885 1.3086,-3.94531 l 4.60937,-12.65625 3.61328,0 -7.85156,20.74218 z"
         style=""
         id="path3732" />
      <path
         d="m 762.72461,785.99213 3.63281,0.44922 c -0.57293,2.1224 -1.63413,3.76953 -3.18359,4.9414 -1.5495,1.17188 -3.52866,1.75781 -5.9375,1.75781 -3.03386,0 -5.43946,-0.93424 -7.2168,-2.80273 -1.77734,-1.86849 -2.66602,-4.48893 -2.66601,-7.86133 -10e-6,-3.48957 0.89843,-6.1979 2.69531,-8.125 1.79687,-1.92706 4.12759,-2.8906 6.99219,-2.89062 2.77342,2e-5 5.03904,0.94403 6.79687,2.83203 1.75779,1.88804 2.6367,4.54428 2.63672,7.96875 -2e-5,0.20834 -0.007,0.52084 -0.0195,0.9375 l -15.46875,0 c 0.1302,2.27865 0.77473,4.02344 1.93359,5.23437 1.15885,1.21094 2.60416,1.81641 4.33594,1.81641 1.28905,0 2.38931,-0.33854 3.30078,-1.01563 0.91144,-0.67708 1.6341,-1.7578 2.16797,-3.24218 z m -11.54297,-5.6836 11.58203,0 c -0.15626,-1.74477 -0.59897,-3.05337 -1.32812,-3.92578 -1.11981,-1.35415 -2.57163,-2.03123 -4.35547,-2.03125 -1.61459,2e-5 -2.97202,0.54038 -4.07227,1.6211 -1.10026,1.08074 -1.70899,2.52605 -1.82617,4.33593 z"
         style=""
         id="path3734" />
      <path
         d="m 770.75195,792.67181 0,-20.74218 3.16407,0 0,3.14453 c 0.80728,-1.47134 1.55272,-2.44139 2.23632,-2.91016 0.68359,-0.46873 1.43554,-0.7031 2.25586,-0.70312 1.18489,2e-5 2.38931,0.37762 3.61328,1.13281 l -1.21093,3.26172 c -0.85939,-0.5078 -1.71876,-0.7617 -2.57813,-0.76172 -0.76824,2e-5 -1.45834,0.23114 -2.07031,0.69336 -0.61199,0.46225 -1.04818,1.10353 -1.30859,1.92383 -0.39064,1.25001 -0.58595,2.6172 -0.58594,4.10156 l 0,10.85937 z"
         style=""
         id="path3736" />
      <path
         d="m 784.15039,792.67181 0,-20.74218 3.14453,0 0,2.91015 c 0.65104,-1.0156 1.51692,-1.83266 2.59766,-2.45117 1.08072,-0.61847 2.31119,-0.92771 3.6914,-0.92773 1.53645,2e-5 2.79621,0.31903 3.7793,0.95703 0.98306,0.63804 1.67642,1.52996 2.08008,2.67578 1.6406,-2.42186 3.77602,-3.63279 6.40625,-3.63281 2.05726,2e-5 3.63929,0.56968 4.74609,1.70898 1.10674,1.13934 1.66013,2.8939 1.66016,5.26367 l 0,14.23828 -3.49609,0 0,-13.0664 c -3e-5,-1.40624 -0.11396,-2.41861 -0.3418,-3.03711 -0.22789,-0.61847 -0.6413,-1.11652 -1.24024,-1.49414 -0.59898,-0.37759 -1.3021,-0.56639 -2.10937,-0.56641 -1.45836,2e-5 -2.66929,0.48505 -3.63281,1.45508 -0.96356,0.97007 -1.44533,2.5228 -1.44532,4.6582 l 0,12.05078 -3.51562,0 0,-13.47656 c -2e-5,-1.56248 -0.28647,-2.73436 -0.85938,-3.51562 -0.57293,-0.78124 -1.51042,-1.17186 -2.8125,-1.17188 -0.98959,2e-5 -1.9043,0.26044 -2.74414,0.78125 -0.83985,0.52085 -1.44857,1.28257 -1.82617,2.28516 -0.37761,1.00262 -0.56641,2.44793 -0.5664,4.33594 l 0,10.76171 z"
         style=""
         id="path3738" />
      <path
         d="m 831.70898,785.99213 3.63282,0.44922 c -0.57294,2.1224 -1.63414,3.76953 -3.1836,4.9414 -1.54949,1.17188 -3.52866,1.75781 -5.9375,1.75781 -3.03386,0 -5.43946,-0.93424 -7.21679,-2.80273 -1.77735,-1.86849 -2.66602,-4.48893 -2.66602,-7.86133 0,-3.48957 0.89844,-6.1979 2.69531,-8.125 1.79687,-1.92706 4.1276,-2.8906 6.99219,-2.89062 2.77342,2e-5 5.03905,0.94403 6.79688,2.83203 1.75779,1.88804 2.63669,4.54428 2.63671,7.96875 -2e-5,0.20834 -0.007,0.52084 -0.0195,0.9375 l -15.46875,0 c 0.13021,2.27865 0.77474,4.02344 1.9336,5.23437 1.15884,1.21094 2.60415,1.81641 4.33593,1.81641 1.28905,0 2.38931,-0.33854 3.30079,-1.01563 0.91144,-0.67708 1.63409,-1.7578 2.16796,-3.24218 z m -11.54296,-5.6836 11.58203,0 c -0.15627,-1.74477 -0.59898,-3.05337 -1.32813,-3.92578 -1.1198,-1.35415 -2.57163,-2.03123 -4.35547,-2.03125 -1.61459,2e-5 -2.97201,0.54038 -4.07226,1.6211 -1.10027,1.08074 -1.70899,2.52605 -1.82617,4.33593 z"
         style=""
         id="path3740" />
      <path
         d="m 839.77539,792.67181 0,-28.63281 3.51563,0 0,10.27344 c 1.64061,-1.90102 3.71092,-2.85154 6.21093,-2.85156 1.53645,2e-5 2.87108,0.30275 4.00391,0.9082 1.13279,0.60549 1.94334,1.44208 2.43164,2.50977 0.48826,1.06772 0.7324,2.6172 0.73242,4.64843 l 0,13.14453 -3.51562,0 0,-13.14453 c -2e-5,-1.75779 -0.38088,-3.03709 -1.14258,-3.83789 -0.76173,-0.80076 -1.83921,-1.20115 -3.23242,-1.20117 -1.04168,2e-5 -2.0215,0.2702 -2.93946,0.81055 -0.91797,0.54038 -1.57227,1.2728 -1.96289,2.19726 -0.39063,0.9245 -0.58594,2.20054 -0.58593,3.82813 l 0,11.34765 z"
         style=""
         id="path3742" />
      <path
         d="m 862.00195,792.67181 0,-20.74218 3.16407,0 0,3.14453 c 0.80728,-1.47134 1.55272,-2.44139 2.23632,-2.91016 0.68359,-0.46873 1.43554,-0.7031 2.25586,-0.70312 1.18489,2e-5 2.38931,0.37762 3.61328,1.13281 l -1.21093,3.26172 c -0.85939,-0.5078 -1.71876,-0.7617 -2.57813,-0.76172 -0.76824,2e-5 -1.45834,0.23114 -2.07031,0.69336 -0.61199,0.46225 -1.04818,1.10353 -1.30859,1.92383 -0.39064,1.25001 -0.58595,2.6172 -0.58594,4.10156 l 0,10.85937 z"
         style=""
         id="path3744" />
      <path
         d="m 888.99414,792.67181 0,-3.04687 c -1.6146,2.34375 -3.80861,3.51562 -6.58203,3.51562 -1.22397,0 -2.36654,-0.23437 -3.42774,-0.70312 -1.0612,-0.46875 -1.84896,-1.05794 -2.36328,-1.76758 -0.51432,-0.70963 -0.87565,-1.57877 -1.08398,-2.60742 -0.14323,-0.6901 -0.21485,-1.78385 -0.21484,-3.28125 l 0,-12.85156 3.51562,0 0,11.5039 c -10e-6,1.83595 0.0716,3.07293 0.21484,3.71094 0.22135,0.92448 0.6901,1.65039 1.40625,2.17773 0.71614,0.52735 1.60156,0.79102 2.65625,0.79102 1.05468,0 2.04426,-0.27018 2.96875,-0.81055 0.92447,-0.54036 1.57877,-1.27603 1.96289,-2.20703 0.3841,-0.93098 0.57616,-2.28189 0.57618,-4.05273 l 0,-11.11328 3.51562,0 0,20.74218 z"
         style=""
         id="path3746" />
      <path
         d="m 897.66602,792.67181 0,-20.74218 3.16406,0 0,2.94922 c 1.52343,-2.27863 3.72395,-3.41795 6.60156,-3.41797 1.24999,2e-5 2.39907,0.22463 3.44727,0.67382 1.04816,0.44924 1.83266,1.03844 2.35351,1.76758 0.52082,0.72919 0.8854,1.59507 1.09375,2.59766 0.13019,0.65106 0.19529,1.79038 0.19531,3.41797 l 0,12.7539 -3.51562,0 0,-12.61718 c -2e-5,-1.43228 -0.13674,-2.50324 -0.41016,-3.21289 -0.27345,-0.70962 -0.75848,-1.27603 -1.45508,-1.69922 -0.69662,-0.42316 -1.51368,-0.63475 -2.45117,-0.63477 -1.4974,2e-5 -2.78972,0.47528 -3.87695,1.42578 -1.08725,0.95054 -1.63087,2.75392 -1.63086,5.41016 l 0,11.32812 z"
         style=""
         id="path3748" />
      <path
         d="m 919.28711,794.39056 3.41797,0.50782 c 0.14322,1.05468 0.54036,1.82291 1.1914,2.30468 0.87239,0.65104 2.0638,0.97656 3.57422,0.97657 1.6276,-10e-6 2.8841,-0.32553 3.76953,-0.97657 0.88541,-0.65104 1.48436,-1.5625 1.79688,-2.73437 0.18228,-0.71615 0.26691,-2.22005 0.25391,-4.51172 -1.53648,1.8099 -3.45054,2.71484 -5.74219,2.71484 -2.85157,0 -5.0586,-1.02864 -6.6211,-3.08593 -1.5625,-2.05729 -2.34375,-4.52474 -2.34375,-7.40235 0,-1.97915 0.35808,-3.80532 1.07422,-5.47851 0.71615,-1.67316 1.75456,-2.96548 3.11524,-3.87696 1.36067,-0.91143 2.95897,-1.36716 4.79492,-1.36718 2.4479,2e-5 4.46613,0.9896 6.05469,2.96875 l 0,-2.5 3.24218,0 0,17.92968 c -2e-5,3.22917 -0.32879,5.51758 -0.98632,6.86524 -0.65757,1.34765 -1.69924,2.4121 -3.125,3.19336 -1.4258,0.78124 -3.18035,1.17186 -5.26368,1.17187 -2.47396,-10e-6 -4.47266,-0.55665 -5.99609,-1.66992 -1.52344,-1.11329 -2.25912,-2.78972 -2.20703,-5.0293 z m 2.91016,-12.46093 c -10e-6,2.72136 0.54035,4.70703 1.62109,5.95703 1.08072,1.25 2.43489,1.875 4.0625,1.875 1.61457,0 2.96874,-0.62174 4.0625,-1.86524 1.09373,-1.24348 1.64061,-3.19335 1.64062,-5.84961 -10e-6,-2.53905 -0.56316,-4.45311 -1.68945,-5.74218 -1.12631,-1.28905 -2.48373,-1.93358 -4.07226,-1.9336 -1.56251,2e-5 -2.89064,0.63479 -3.98438,1.9043 -1.09375,1.26955 -1.64063,3.15431 -1.64062,5.6543 z"
         style=""
         id="path3750" />
      <path
         d="m 683.42773,842.67181 0,-28.63281 20.70313,0 0,3.37891 -16.91406,0 0,8.76953 15.83984,0 0,3.35937 -15.83984,0 0,9.7461 17.57812,0 0,3.3789 z"
         style=""
         id="path3752" />
      <path
         d="m 723.07617,842.67181 0,-2.61718 c -1.31512,2.05729 -3.24871,3.08593 -5.80078,3.08593 -1.65365,0 -3.17383,-0.45573 -4.56055,-1.36718 -1.38672,-0.91146 -2.46094,-2.18425 -3.22265,-3.81836 -0.76172,-1.63411 -1.14258,-3.51236 -1.14258,-5.63477 0,-2.0703 0.34505,-3.94855 1.03516,-5.63476 0.6901,-1.68618 1.72525,-2.9785 3.10546,-3.87696 1.38021,-0.89841 2.92317,-1.34763 4.62891,-1.34765 1.24999,2e-5 2.36327,0.26369 3.33984,0.79101 0.97655,0.52737 1.77082,1.21421 2.38282,2.06055 l 0,-10.27344 3.49609,0 0,28.63281 z m -11.11328,-10.35156 c 0,2.65626 0.55989,4.64193 1.67969,5.95703 1.11978,1.31511 2.4414,1.97266 3.96484,1.97266 1.53645,0 2.84179,-0.62825 3.91602,-1.88477 1.0742,-1.2565 1.61131,-3.17382 1.61133,-5.75195 -2e-5,-2.83853 -0.54689,-4.92186 -1.64063,-6.25 -1.09376,-1.32811 -2.44142,-1.99217 -4.04297,-1.99219 -1.56251,2e-5 -2.86784,0.63804 -3.91601,1.91407 -1.04819,1.27605 -1.57227,3.28777 -1.57227,6.03515 z"
         style=""
         id="path3754" />
      <path
         d="m 746.08398,835.99213 3.63282,0.44922 c -0.57294,2.1224 -1.63414,3.76953 -3.1836,4.9414 -1.54949,1.17188 -3.52866,1.75781 -5.9375,1.75781 -3.03386,0 -5.43946,-0.93424 -7.21679,-2.80273 -1.77735,-1.86849 -2.66602,-4.48893 -2.66602,-7.86133 0,-3.48957 0.89844,-6.1979 2.69531,-8.125 1.79687,-1.92706 4.1276,-2.8906 6.99219,-2.89062 2.77342,2e-5 5.03905,0.94403 6.79688,2.83203 1.75779,1.88804 2.63669,4.54428 2.63671,7.96875 -2e-5,0.20834 -0.007,0.52084 -0.0195,0.9375 l -15.46875,0 c 0.13021,2.27865 0.77474,4.02344 1.9336,5.23437 1.15884,1.21094 2.60415,1.81641 4.33593,1.81641 1.28905,0 2.38931,-0.33854 3.30079,-1.01563 0.91144,-0.67708 1.63409,-1.7578 2.16796,-3.24218 z m -11.54296,-5.6836 11.58203,0 c -0.15627,-1.74477 -0.59898,-3.05337 -1.32813,-3.92578 -1.1198,-1.35415 -2.57163,-2.03123 -4.35547,-2.03125 -1.61459,2e-5 -2.97201,0.54038 -4.07226,1.6211 -1.10027,1.08074 -1.70899,2.52605 -1.82617,4.33593 z"
         style=""
         id="path3756" />
      <path
         d="m 754.11133,842.67181 0,-20.74218 3.16406,0 0,3.14453 c 0.80729,-1.47134 1.55273,-2.44139 2.23633,-2.91016 0.68358,-0.46873 1.43554,-0.7031 2.25586,-0.70312 1.18488,2e-5 2.38931,0.37762 3.61328,1.13281 l -1.21094,3.26172 c -0.85938,-0.5078 -1.71876,-0.7617 -2.57812,-0.76172 -0.76824,2e-5 -1.45835,0.23114 -2.07032,0.69336 -0.61198,0.46225 -1.04818,1.10353 -1.30859,1.92383 -0.39063,1.25001 -0.58594,2.6172 -0.58594,4.10156 l 0,10.85937 z"
         style=""
         id="path3758" />
      <path
         d="m 781.70898,835.99213 3.63282,0.44922 c -0.57294,2.1224 -1.63414,3.76953 -3.1836,4.9414 -1.54949,1.17188 -3.52866,1.75781 -5.9375,1.75781 -3.03386,0 -5.43946,-0.93424 -7.21679,-2.80273 -1.77735,-1.86849 -2.66602,-4.48893 -2.66602,-7.86133 0,-3.48957 0.89844,-6.1979 2.69531,-8.125 1.79687,-1.92706 4.1276,-2.8906 6.99219,-2.89062 2.77342,2e-5 5.03905,0.94403 6.79688,2.83203 1.75779,1.88804 2.63669,4.54428 2.63671,7.96875 -2e-5,0.20834 -0.007,0.52084 -0.0195,0.9375 l -15.46875,0 c 0.13021,2.27865 0.77474,4.02344 1.9336,5.23437 1.15884,1.21094 2.60415,1.81641 4.33593,1.81641 1.28905,0 2.38931,-0.33854 3.30079,-1.01563 0.91144,-0.67708 1.63409,-1.7578 2.16796,-3.24218 z m -11.54296,-5.6836 11.58203,0 c -0.15627,-1.74477 -0.59898,-3.05337 -1.32813,-3.92578 -1.1198,-1.35415 -2.57163,-2.03123 -4.35547,-2.03125 -1.61459,2e-5 -2.97201,0.54038 -4.07226,1.6211 -1.10027,1.08074 -1.70899,2.52605 -1.82617,4.33593 z"
         style=""
         id="path3760" />
      <path
         d="m 789.73633,842.67181 0,-20.74218 3.16406,0 0,3.14453 c 0.80729,-1.47134 1.55273,-2.44139 2.23633,-2.91016 0.68358,-0.46873 1.43554,-0.7031 2.25586,-0.70312 1.18488,2e-5 2.38931,0.37762 3.61328,1.13281 l -1.21094,3.26172 c -0.85938,-0.5078 -1.71876,-0.7617 -2.57812,-0.76172 -0.76824,2e-5 -1.45835,0.23114 -2.07032,0.69336 -0.61198,0.46225 -1.04818,1.10353 -1.30859,1.92383 -0.39063,1.25001 -0.58594,2.6172 -0.58594,4.10156 l 0,10.85937 z"
         style=""
         id="path3762" />
    </g>
    <path
       style="fill:#000000;filter:url(#filter3529)"
       d="m 753.66707,396.24486 c -15.49144,1.63183 -24.54708,25.7271 -29.0625,38.93749 -4.51542,13.21039 -14.37024,65.54791 -10.15625,100.96873 0.89662,6.98935 2.40691,17.4077 2.71875,20.25 0.31184,2.8423 0.14355,13.27684 -0.1875,13.8125 -4.54164,-3.46311 -12.85585,-11.52936 -15.53126,-14.09375 -10.76129,-10.31476 -37.47214,-18.84993 -58.31244,-21.5625 -18.333,-2.38622 -54.0207,-6.91311 -70.5313,-1.59375 -0.062,-0.0358 -0.1875,-0.0937 -0.1875,-0.0937 -8.8849,3.11411 -22.5564,9.56716 -23.0312,18.53125 -0.4748,8.96409 8,13.99756 11.8125,16.46875 18.8904,12.63726 36.5968,18.47267 58.9375,26.1875 17.2562,5.06996 31.73,7.85156 42.9687,9.625 3.8684,0.49828 7.98135,1.35168 11.62499,1.4375 2.0625,0.0421 3.7609,0.43125 3.75,0.84375 -4.87823,4.24414 -11.09811,7.20264 -15.71869,11.96875 -6.6025,6.9434 -15.0162,16.35062 -19.7188,30.34375 -5.3312,15.86413 -9.0303,38.70605 -8.1562,58.4375 1.4471,10.42175 2.2729,27.38004 10.5937,27.9375 8.7404,0.58556 15.9116,-7.08008 22.21874,-14.4375 4.16826,-4.86231 25.02405,-29.2874 32.9375,-38.5 7.91346,-9.2126 12.17091,-17.34274 14.50001,-16.8125 1.18627,0.27006 2.98627,0.0537 4,-0.46875 2.97094,-1.53114 4.41895,-0.47269 3.3125,2.4375 -0.52637,1.38451 -0.78239,2.82115 -0.5625,3.1875 0.62336,1.03854 1.89461,10.4268 1.71875,12.65625 -0.50339,6.38148 -0.16016,14.33329 0.6875,16.5 1.43435,3.66632 8.90899,5.74176 14.28125,3.96875 3.42982,-1.13194 4.1572,-1.09475 5.78125,0.375 1.01996,0.92305 3.60181,1.88004 5.75,2.09375 7.52577,0.7487 12.42141,-7.25405 8.6875,-14.1875 -0.9635,-1.78911 -2.02485,-3.25 -2.375,-3.25 -0.35015,0 -0.73866,-3.91972 -0.84375,-8.6875 -0.10508,-4.76779 -0.6172,-9.49279 -1.15625,-10.5 -0.73508,-1.37351 -0.65368,-1.8125 0.40625,-1.8125 0.77727,0 2.06379,-0.95031 2.84375,-2.125 0.69688,-1.04955 1.14068,-1.55598 1.71875,-1.59375 0.0826,-0.005 0.16045,-0.0141 0.25,0 0.42982,0.0678 0.95816,0.37678 1.71875,0.84375 5.12568,4.60155 22.54412,28.02501 27.03125,33.03125 5.06652,5.65265 28.67629,39.87394 44.0625,39.375 8.32088,-0.55746 12.82165,-13.21729 10.60898,-35.1875 -2.21267,-21.97021 -4.33469,-37.86809 -12.79648,-54.5 -7.82746,-15.38511 -18.38446,-29.02512 -33.78125,-39.25 15.86935,-1.42467 33.19497,-4.94761 48.6875,-9.34375 27.99909,-8.16882 59.02191,-14.50228 71.21875,-23.75 4.56194,-3.45889 13.19363,-10.64651 14.1875,-13.25 1.46797,-11.39194 -24.41031,-21.79116 -31.59375,-23.84375 -15.18136,-4.20676 -46.75762,-1.941 -61.96875,-0.5 -13.73808,1.30146 -38.87139,9.79617 -50.625,16.625 -11.75361,6.82883 -18.13084,16.54834 -20.96875,18.96875 l 0.625,-3.5625 c -0.73285,0.93168 4.9923,-18.16024 6.5,-27.4375 1.64029,-10.09308 4.27198,-33.95851 4.15625,-52.18749 -0.11573,-18.229 -3.5791,-48.89365 -5.25,-56.78124 -2.18989,-8.62408 -5.67644,-30.44758 -17.78125,-36.49999 z m -1.375,6.40625 c 9.51798,6.33971 12.64835,20.34765 14.875,31.21874 6.52137,32.78432 4.11387,70.11746 1.8125,98.84373 -0.41588,5.15205 -2.94972,15.87096 -3.875,20.53125 -0.92528,4.66029 -4.1658,18.05649 -4.53125,23.375 l -10.1875,11.71875 c -1.03597,1.03597 -2.91875,1.8966 -4.15625,1.9375 -2.22092,0.0734 -6.16651,0.75474 -10.0625,0.5 -4.09516,-2.42491 -7.27701,-5.04539 -10.46875,-8.09375 -2.15185,-3.04637 -3.69978,-6.93902 -3.8125,-11 -0.46056,-3.45504 0.31385,-7.55805 -0.15625,-11.3125 -0.42072,-2.63341 -3.22296,-31.2829 -3.6875,-40.21875 -1.16036,-16.57814 6.92403,-70.87594 10.28125,-81.68748 3.35722,-10.81154 10.42047,-30.75498 23.96875,-35.81249 z m -162.1562,132.37497 c 15.1713,-0.0857 43.7303,3.35852 56.2187,5 14.5249,1.90915 36.29565,9.42622 46.81249,16.28125 9.55993,6.23129 22.9758,22.47396 25.75001,25.75 0.19685,0.23314 0.35364,0.37556 0.5625,0.625 3.44122,4.10984 5.57231,6.09173 8.125,8.0625 2.37063,2.42466 0.5466,6.8363 -1.4375,8.375 -1.47495,2.18697 -3.4028,6.26317 -6.15625,7.125 -7.2918,-1.05334 -12.80505,-1.26622 -19.65626,-1.09375 -5.77553,-0.81238 -9.7561,-1.02319 -14.78125,-2.46875 -0.87295,-0.34486 -3.61875,-0.82447 -6.09375,-1.0625 -2.475,-0.23803 -6.075,-0.73458 -8,-1.09375 -18.48809,-2.51846 -41.46019,-7.6107 -55.34369,-12.71875 -15.8077,-5.38517 -29.6187,-9.75945 -45.9062,-19.4375 -6.1308,-3.67503 -15.283,-8.45474 -15.75,-15.875 4.8912,-11.2186 22.981,-16.97564 32.8125,-17.40625 0.8837,-0.0387 1.8323,-0.0568 2.8437,-0.0625 z m 278.62495,5.09375 c 12.42152,-0.10351 24.23879,0.89529 32.0625,3.625 5.17093,1.80415 28.62108,10.7524 21.5625,18.46875 -9.03761,9.66408 -22.91289,16.04849 -34.84375,19.375 -21.40574,5.72969 -46.5161,13.1964 -64.34375,16.96875 -13.43798,2.84349 -29.49432,3.72281 -43.875,6.0625 -6.90285,-0.60437 -14.76516,2.41499 -19.8125,1.75 -2.5461,-1.88841 -4.12811,-5.08116 -6.3125,-7.8125 -1.35383,-2.10617 -1.69062,-3.2915 -1.53125,-4.84375 0.27197,-2.64893 9.24548,-11.24375 10.53125,-12.34375 l 14.8125,-14.65625 c 15.4106,-14.10136 38.06267,-20.78055 56.09375,-23.65625 10.20898,-1.62819 23.23473,-2.83399 35.65625,-2.9375 z m -128.8125,53.5625 c 0.0645,0.0105 0.14911,0.10852 0.21875,0.28125 0.27855,0.69092 0.9421,0.9698 1.5,0.625 0.28279,-0.17477 0.44338,-0.10786 0.4375,0.125 -0.004,0.0118 0.004,0.0195 0,0.0312 -0.0213,0.26407 -0.19885,0.72267 -0.53125,1.34375 -1.52352,2.84673 -2.0947,2.67457 -2,-0.625 0.0326,-1.13435 0.18136,-1.81277 0.375,-1.78125 z m 2.8125,5.625 c 0.13534,-0.0167 0.28295,-0.008 0.4375,0 0.96163,0.0472 2.30839,0.57824 4.21875,1.53125 4.2555,3.60358 6.37101,8.03052 6.625,10.78125 0.3427,3.71148 1.11033,4.68204 1.90625,25.4375 0.76762,7.61006 2.83372,19.23632 -1.5625,19.625 l -4.125,-0.0312 -2.5,-7.75 c -2.23232,-6.93712 -2.61604,-7.56727 -3.8125,-5.96875 -1.2218,1.6324 -1.30448,1.57032 -0.75,-0.625 0.40703,-1.61154 0.23466,-2.17279 -0.5,-1.71875 -0.63889,0.39486 -1.0665,-0.062 -1.0625,-1.09375 0.007,-1.92471 -0.98562,-9.42175 -1.71875,-13.03125 -0.25135,-1.2375 -1.12298,-2.25 -1.9375,-2.25 -0.81452,0 -1.5,-0.85774 -1.5,-1.90625 0,-1.41407 0.51651,-1.76294 2,-1.375 1.1,0.28766 2,0.98498 2,1.5625 0,0.57752 0.30288,0.75963 0.65625,0.40625 0.9623,-0.9623 -1.69238,-3.76215 -2.875,-3.03125 -0.66899,0.41346 -0.89295,-1.26709 -0.59375,-4.875 0.37836,-4.5625 0.16355,-5.71492 -1.34375,-6.65625 -1.67342,-1.04507 -1.84375,-0.72422 -1.84375,4 0,2.82835 -0.41559,6.76119 -0.9375,8.75 -0.52191,1.98881 -1.90299,7.98536 -3.0625,13.3125 -1.15951,5.32714 -2.40017,9.82714 -2.78125,10 -0.92125,0.41788 -6.21875,11.03114 -6.21875,12.46875 0,0.61994 -0.70248,1.40799 -1.59375,1.75 -1.30388,0.50035 -1.49745,0.16608 -0.9375,-1.65625 1.77377,-5.77267 1.15692,-16.08321 1.53125,-21.25 0.32534,-4.49064 2.94466,-19.76041 3.6875,-22.625 0.93427,-3.60279 4.50574,-10.25701 9.5625,-13 1.52214,-0.82568 1.65335,-0.54803 1.09375,2.25 -0.4551,2.27546 -0.32727,2.98004 0.5,2.46875 0.70643,-0.43659 1.2086,-0.0116 1.25,1.09375 0.0535,1.43079 0.29934,1.29163 1.21875,-0.625 0.89971,-1.8756 0.88961,-2.49513 -0.0625,-2.8125 -0.67658,-0.22553 -1.25,-1.12224 -1.25,-1.96875 0,-3.08405 3.00478,0.85235 3.125,4.09375 0.0718,1.93519 0.26955,2.36251 0.53125,1.125 0.23261,-1.1 0.64218,-3.0125 0.90625,-4.25 0.28038,-1.31395 0.77135,-2.03945 1.71875,-2.15625 z m 17.25,4.46875 c -0.0325,0.0235 -0.0609,0.0377 -0.0937,0.0625 -0.0643,0.0191 -0.12522,0.0433 -0.1875,0.0625 0.21547,0.0614 0.41647,0.10673 0.59375,0.125 -0.10418,-0.084 -0.21045,-0.16278 -0.3125,-0.25 z m -19.53125,4.4375 c -0.55,0 -1,0.48004 -1,1.0625 0,0.58246 0.45,0.77742 1,0.4375 0.55,-0.33992 1,-0.81996 1,-1.0625 0,-0.24254 -0.45,-0.4375 -1,-0.4375 z m -27.96875,1.09375 c 3.20064,0.01 5.1893,5.4e-4 6.25,1.375 0.61709,3.98892 -1.67038,15.94908 -2.375,20.5 -0.7266,4.69286 -0.53365,9.38774 -0.8125,16.5625 -2.89188,5.60459 -6.14424,12.48882 -8.5,16.5625 -5.03259,8.70257 -46.39265,58.91123 -53.06245,63.34375 -5.3702,3.56886 -8.2928,2.56399 -10.1875,-0.4375 -3.6245,-5.74176 -4.3619,-22.38014 -4.3125,-28.09375 0.2507,-19.69619 6.3055,-48.32216 12.5312,-59.21875 6.0101,-10.5191 13.515,-18.55754 24.03124,-25.59375 2.72497,-1.50603 10.4189,-3.56953 15.1875,-3.90625 3.93963,-0.77867 11.57078,-0.9663 15.25001,-1.0625 1.99444,0.0503 4.07962,-0.0371 6,-0.0312 z m 71.3125,0.0937 c 0.96816,-0.0135 1.91564,-0.0135 2.8125,0 7.1704,0.23948 7.10665,2.18106 10.75,4.8125 8.79088,6.34927 22.02029,20.82647 28.53125,34.15625 8.65775,17.72487 12.61883,45.42369 12.5,57.84375 -0.0732,7.64778 -2.04997,25.31621 -8.71875,24.53125 -10.76178,-1.26673 -24.16223,-18.53801 -31.4375,-28.53125 -6.26897,-8.61101 -28.90791,-35.87724 -34.9375,-45.84375 -0.66802,-3.90856 -4.08798,-32.20386 -3.84375,-35.625 -0.65257,-8.75546 1.04071,-6.39214 2.5,-8.875 6.77177,-1.60899 15.06661,-2.37402 21.84375,-2.46875 z m -78.8125,14.75 c -2.05883,-0.022 -6.15711,2.90577 -10.31251,7.5 -6.26064,6.92177 -6.29486,6.97027 -10.90625,15.25 -3.66658,6.58333 -3.80019,7.01806 -1.15625,3.90625 2.7486,-3.23499 2.94221,-3.3107 2.46875,-1 -0.50195,2.4497 -0.47892,2.44249 1.09375,-0.28125 0.96247,-1.66691 2.09138,-2.50752 2.8125,-2.09375 0.66139,0.37948 0.88125,0.32955 0.5,-0.0937 -0.81113,-0.90123 3.30577,-7.82283 7,-11.78125 1.41155,-1.5125 2.1728,-2.75 1.6875,-2.75 -0.4853,0 -2.23042,1.2375 -3.875,2.75 -1.64459,1.5125 -0.56688,-0.0852 2.375,-3.53125 3.85826,-4.51943 5.82973,-6.08869 7.09376,-5.6875 1.92968,0.61246 3.5433,-1.02687 1.96875,-2 -0.20602,-0.12733 -0.45588,-0.18435 -0.75,-0.1875 z m -26.12501,0.5625 c -0.03,0.021 -0.0642,0.0324 -0.0937,0.0625 -0.002,0.0108 10e-4,0.0208 0,0.0312 -0.004,0.0317 0.003,0.0634 0,0.0937 0.0529,-0.0299 0.0756,-0.0913 0.125,-0.125 -10e-4,-0.0208 -3.6e-4,-0.0416 0,-0.0625 -0.008,-0.004 -0.0231,0.004 -0.0312,0 z m 0.0625,0.3125 c -0.0545,0.0182 -0.12347,0.0186 -0.1875,0.0312 0.004,0.007 -0.005,0.0263 0,0.0312 0.0323,0.0323 0.0993,-0.007 0.1875,-0.0625 z m 23.56251,3.875 c -0.23677,-0.0112 -0.49793,0.0119 -0.84376,0.0625 -1.25547,0.18376 -2.47551,0.85578 -2.6875,1.5 -0.24564,0.7465 0.36655,0.97043 1.6875,0.625 2.5663,-0.6711 3.50114,-2.10898 1.84376,-2.1875 z m 34.40625,1.8125 c 0.1349,-0.0413 0.28138,0.0629 0.375,0.34375 0.24048,0.72144 -0.0439,1.7939 -0.625,2.375 -0.74207,0.74207 -0.87247,0.35085 -0.4375,-1.3125 0.22101,-0.84513 0.46267,-1.33745 0.6875,-1.40625 z m 41.375,0.96875 c -0.21999,0.0764 0.0436,0.40071 0.75,1 0.77702,0.6592 1.1062,1.43967 0.71875,1.75 -0.38746,0.31029 -0.23116,0.35304 0.375,0.0937 1.51326,-0.64741 2.89757,1.89771 2.21875,4.09375 -0.30629,0.9909 -0.24433,2.38854 0.15625,3.09375 0.44507,0.78355 0.28525,1.08156 -0.46875,0.78125 -1.82482,-0.72683 -1.34804,0.52415 1.5,3.71875 1.39258,1.56205 2.82834,3.94648 3.1875,5.3125 0.35917,1.36604 0.96174,2.21556 1.34375,1.875 0.382,-0.34056 0.22396,-1.72282 -0.375,-3.0625 -0.75782,-1.69493 -0.73711,-2.28087 0.125,-1.9375 0.7972,0.31753 0.95704,0.0107 0.40625,-0.90625 -0.4708,-0.78372 -1.46423,-1.35179 -2.21875,-1.21875 -0.75451,0.13304 -1.42881,0.0703 -1.46875,-0.15625 -0.0399,-0.22653 -0.50164,-1.14961 -1.03125,-2.03125 -0.69134,-1.15086 -0.55809,-1.45905 0.4375,-1.0625 1.06906,0.42581 1.07096,0.19831 0.0312,-1.125 -0.8339,-1.06142 -1.12062,-2.33361 -0.71875,-3.3125 0.35744,-0.87066 0.71705,-1.36167 0.78125,-1.09375 0.41644,1.73782 4.3123,7.50524 4.09375,6.0625 -0.39595,-2.61411 -7.0525,-11.42113 -8.90625,-11.78125 -0.47511,-0.0923 -0.80551,-0.13961 -0.9375,-0.0937 z m 0.65625,5.09375 c -0.17669,-0.01 -0.36534,-0.004 -0.5625,0.0312 -0.78865,0.13906 -1.13981,0.56656 -0.78125,0.96875 0.35854,0.40218 1.05282,0.68362 1.5625,0.59375 0.50967,-0.0899 0.86084,-0.54863 0.78125,-1 -0.0597,-0.33853 -0.46992,-0.56426 -1,-0.59375 z m -87.59376,2.03125 c 0.275,0 -0.48135,1.35 -1.65625,3 -1.1749,1.65 -2.35,3 -2.625,3 -0.275,0 0.4501,-1.35 1.625,-3 1.1749,-1.65 2.38125,-3 2.65625,-3 z m 40.09376,2.40625 c 0.58246,0 1.03125,0.45 1.03125,1 0,0.55 -0.19496,1 -0.4375,1 -0.24254,0 -0.72258,-0.45 -1.0625,-1 -0.33992,-0.55 -0.11371,-1 0.46875,-1 z m 5.09375,2.4375 c 0.81976,-0.15266 1.69003,1.02423 2.6875,3.46875 0.73232,1.79471 0.91844,3.00405 0.40625,2.6875 -0.51219,-0.31655 -1.19861,0.13318 -1.53125,1 -1.02288,2.66563 -0.71147,3.13277 1.78125,2.65625 1.75942,-0.33633 2.56941,0.0761 3.03125,1.53125 0.34673,1.09245 1.73136,3.15743 3.0625,4.59375 1.33114,1.43632 2.10499,2.6849 1.71875,2.75 -0.38624,0.0651 0.63125,0.45515 2.28125,0.875 l 3,0.75 -2.78125,0.125 c -1.67024,0.071 -3.01896,-0.50968 -3.375,-1.4375 -0.49254,-1.28354 -0.82757,-1.15148 -2.09375,0.65625 -1.68859,2.41079 -1.90531,7.62594 -0.375,9.15625 0.54165,0.54166 0.75266,1.72952 0.46875,2.625 -0.43735,1.37948 -0.34987,1.40262 0.53125,0.15625 1.58132,-2.2368 2.46614,-0.52269 0.96875,1.875 -0.9559,1.53064 -2.32725,2.09375 -5.09375,2.09375 -4.18554,0 -5.51394,1.66047 -3.84375,4.78125 0.90615,1.69315 0.73589,1.8663 -1.34375,1.46875 -1.8246,-0.34879 -2.74941,0.21361 -3.9375,2.40625 -0.95934,1.77047 -1.5376,2.22968 -1.5625,1.21875 -0.022,-0.89515 0.6125,-2.19031 1.4375,-2.875 0.825,-0.68469 1.5,-2.48469 1.5,-4 0,-1.51531 -0.675,-3.31531 -1.5,-4 -1.79336,-1.48836 -1.94897,-6.11353 -0.28125,-7.78125 1.44054,-1.44054 1.73634,-2.95496 2.25,-10.71875 0.21831,-3.29996 0.17334,-4.82796 -0.0937,-3.375 -0.37671,2.04626 -0.9062,2.52544 -2.4375,2.125 -1.86293,-0.48717 -1.8944,-0.64985 -0.375,-2.96875 0.88683,-1.35347 2.28068,-4.69961 3.09375,-7.4375 0.82683,-2.78424 1.58649,-4.25359 2.40625,-4.40625 z m 8.09375,1.03125 c 0.40448,0.0106 0.86483,0.83373 1.09375,2.03125 0.26162,1.36859 0.15958,2.5 -0.25,2.5 -1.07213,0 -1.94248,-3.91751 -1,-4.5 0.0544,-0.0336 0.0985,-0.0329 0.15625,-0.0312 z m 5.0625,3.59375 c -1.05115,0.0491 -1.2184,0.27892 -0.4375,0.59375 0.69106,0.27855 0.9945,0.90952 0.6875,1.40625 -0.30699,0.49672 0.14959,0.63883 1,0.3125 1.93221,-0.74146 1.02706,-2.41881 -1.25,-2.3125 z m -3.8125,2.25 c 0.27211,-0.0721 0.68377,0.38237 0.96875,1.125 0.67618,1.76211 0.0798,2.09546 -0.90625,0.5 -0.36253,-0.58659 -0.44963,-1.30037 -0.1875,-1.5625 0.0328,-0.0328 0.0861,-0.0522 0.125,-0.0625 z m 44.5625,1.4375 c -0.25307,0.0507 -0.48168,0.327 -0.6875,0.84375 -0.30291,0.7605 -0.18991,1.95519 0.25,2.6875 0.6739,1.12185 0.89185,1.06821 1.40625,-0.40625 0.5658,-1.62176 -0.20944,-3.27681 -0.96875,-3.125 z m -106.96876,0.71875 c -0.64825,0.0937 -2.48734,2.55743 -3.46875,4.90625 -1.01724,2.43461 -1.71023,3.15462 -2.25,2.28125 -0.58323,-0.94368 -1.19963,-0.66019 -2.40625,1.0625 -0.89542,1.27839 -1.633,3.00362 -1.625,3.84375 0.008,0.87257 0.55941,0.45803 1.28125,-0.96875 0.695,-1.37372 2.03422,-2.499 2.96875,-2.5 1.32399,-0.002 5.71875,-6.37622 5.71875,-8.28125 0,-0.2617 -0.0692,-0.36536 -0.21875,-0.34375 z m -4.125,2.4375 c -0.0725,-0.0143 -0.16035,0.0139 -0.25,0.0312 -0.11953,0.0231 -0.26875,0.0713 -0.40625,0.15625 -0.55,0.33992 -1,1.075 -1,1.625 0,0.55 0.45,0.71492 1,0.375 0.55,-0.33992 1,-1.075 1,-1.625 0,-0.30938 -0.12633,-0.51951 -0.34375,-0.5625 z m 59.75001,0.5625 c -0.1161,0.004 -0.2502,0.007 -0.375,0.0312 -0.9625,0.18426 -2.0875,0.36415 -2.5,0.40625 -0.4125,0.0421 -0.75,0.57379 -0.75,1.15625 0,0.58246 0.45,0.77742 1,0.4375 0.55,-0.33992 1.0612,0.41754 1.125,1.6875 0.0851,1.69418 0.2582,1.84651 0.59375,0.5625 0.25152,-0.9625 0.86533,-1.75 1.375,-1.75 0.50968,0 0.90625,-0.62991 0.90625,-1.40625 0,-0.70459 -0.56231,-1.15352 -1.375,-1.125 z m -56.00001,2.4375 c -0.0389,0.0103 -0.0922,0.0297 -0.125,0.0625 -0.0655,0.0655 -0.10197,0.16831 -0.125,0.28125 0.15893,-0.10817 0.33495,-0.19337 0.5,-0.28125 -0.0934,-0.0586 -0.17294,-0.0829 -0.25,-0.0625 z m 108.59376,0.375 c -0.46686,0.0823 -0.13844,1.15882 0.71875,2.40625 0.85718,1.24742 1.67959,2.12731 1.8125,1.9375 0.49354,-0.70486 -1.71352,-4.48794 -2.53125,-4.34375 z m 2.53125,0.59375 c -0.0501,-0.007 -0.0944,0.0161 -0.125,0.0312 -0.26939,0.13331 0.18485,1.19228 1.375,3.1875 0.88758,1.48794 1.10279,2.58083 0.5625,3.0625 -0.46417,0.41382 -0.71899,1.26869 -0.5625,1.90625 0.20367,0.82972 0.36164,0.79218 0.5625,-0.15625 0.15435,-0.72877 0.79266,-1.1194 1.40625,-0.875 1.34659,0.53635 -0.94371,-5.59714 -2.53125,-6.78125 -0.31663,-0.23615 -0.53707,-0.35546 -0.6875,-0.375 z m -66.53125,0.65625 c 0.22441,-0.0504 0.65786,0.18912 1.28125,0.8125 0.825,0.825 1.5,2.16539 1.5,2.96875 0,0.80335 -0.90218,2.51406 -2.03125,3.8125 l -2.0625,2.375 0.6875,-2.5 c 0.3782,-1.375 1.05317,-2.74174 1.5,-3.03125 0.44684,-0.28952 0.38754,-1.18952 -0.125,-2 -0.90737,-1.43481 -1.12402,-2.35355 -0.75,-2.4375 z m 25.1875,0.8125 c 0.35859,-0.0603 0.59375,0.1569 0.59375,0.59375 0,0.58246 -0.45,1.0625 -1,1.0625 -0.55,0 -1,-0.19496 -1,-0.4375 0,-0.24254 0.45,-0.72258 1,-1.0625 0.1375,-0.085 0.28672,-0.13615 0.40625,-0.15625 z m -75.62501,1.5 c -0.0532,-0.002 -0.0961,0.0133 -0.15625,0.0312 -0.12036,0.0358 -0.24805,0.12098 -0.40625,0.21875 -0.55,0.33992 -0.97675,1.38246 -0.96875,2.3125 0.0132,1.45727 0.13335,1.48019 0.96875,0.1875 0.9492,-1.46878 1.19335,-2.58461 0.71875,-2.71875 -0.0395,-0.0112 -0.10306,-0.0296 -0.15625,-0.0312 z m 70.56251,4.5625 c 0.26544,-0.0767 0.6374,0.56385 1.40625,2.03125 1.64717,3.14374 1.40979,3.79612 -0.90625,2.5 -1.06884,-0.59816 -1.45598,-1.67733 -1.09375,-3.0625 0.23422,-0.89564 0.3873,-1.4091 0.59375,-1.46875 z m -71.87501,0.125 c -0.0474,-0.0112 -0.0995,0.0142 -0.15625,0.0312 -0.34038,0.10194 -0.85149,0.63832 -1.28125,1.40625 -0.74602,1.33307 -1.24849,1.51828 -1.78125,0.65625 -0.5385,-0.8713 -0.92068,-0.74645 -1.375,0.4375 -0.36687,0.95603 -0.20275,1.38833 0.375,1.03125 0.5437,-0.33602 0.9878,-0.0325 1,0.6875 0.0122,0.71996 0.88735,0.17928 1.9375,-1.1875 1.05016,-1.36678 1.68489,-2.69011 1.40625,-2.96875 -0.0349,-0.0349 -0.0776,-0.0826 -0.125,-0.0937 z m 123.37501,4.625 c -0.1313,0.0303 -0.0997,0.35803 0,1 0.20474,1.3178 0.11136,1.35095 -0.96875,0.1875 -1.06479,-1.14696 -1.16517,-1.11833 -0.9375,0.25 0.14334,0.859 0.60648,1.79633 1.03125,2.09375 2.08071,1.45693 3.57371,-0.81564 1.8125,-2.75 -0.50099,-0.55025 -0.80616,-0.81128 -0.9375,-0.78125 z m -46.46875,0.0312 c 0.0682,-0.0251 0.16692,0.0108 0.25,0.0937 0.33225,0.33229 0.35137,1.18437 0.0625,1.90625 -0.31922,0.79773 -0.54575,0.5712 -0.59375,-0.59375 -0.0326,-0.79062 0.0766,-1.33091 0.28125,-1.40625 z m -81.06251,2.875 c -0.0519,0.01 -0.12516,0.0553 -0.1875,0.0937 -0.49871,0.30822 -0.90625,1.20746 -0.90625,2 0,2.06975 0.70189,1.77249 1.3125,-0.5625 0.25187,-0.96316 0.14443,-1.59857 -0.21875,-1.53125 z m 77.59376,1 c 0.0825,0.0312 -0.0142,0.42057 -0.25,1.15625 -0.30287,0.94489 -0.17185,1.95065 0.3125,2.25 0.48436,0.29935 1.09092,-0.24951 1.34375,-1.21875 0.35885,-1.3757 0.50315,-1.27289 0.59375,0.4375 0.14264,2.69413 -1.69336,4.02725 -2.53125,1.84375 -0.54523,-1.42086 -0.74944,-1.39984 -2.03125,0.1875 -1.33899,1.65815 -1.35832,1.64497 -0.40625,-0.21875 0.56192,-1.1 1.5047,-2.675 2.125,-3.5 0.48296,-0.64234 0.76125,-0.96866 0.84375,-0.9375 z m 3.46875,2.125 c 0.0682,-0.0251 0.16692,0.0108 0.25,0.0937 0.33225,0.33229 0.35137,1.18437 0.0625,1.90625 -0.31922,0.79773 -0.54575,0.5712 -0.59375,-0.59375 -0.0326,-0.79062 0.0766,-1.33091 0.28125,-1.40625 z m -23.84375,3.15625 c 0.16325,-9.8e-4 0.39421,0.17546 0.71875,0.5 0.75682,0.75682 0.83829,1.47421 0.1875,2.125 -0.65079,0.65079 -1.05022,0.28261 -1.15625,-1.125 -0.0758,-1.00602 -0.0221,-1.49836 0.25,-1.5 z m 19.875,5.65625 c 1.75422,0 2.48865,0.67366 2.84375,2.53125 0.65584,3.43076 -0.33939,3.76437 -3,1 -2.82205,-2.93209 -2.79784,-3.53125 0.15625,-3.53125 z m -20,1.34375 c 0.35859,-0.0693 0.59375,0.11875 0.59375,0.53125 0,0.55 -0.45,1.28508 -1,1.625 -0.55,0.33992 -1,0.175 -1,-0.375 0,-0.55 0.45,-1.28508 1,-1.625 0.1375,-0.085 0.28672,-0.13316 0.40625,-0.15625 z m 10.03125,0.28125 c 0.31977,-0.0113 1.3801,0.46488 2.75,1.25 1.82653,1.04682 3.2,2.38619 3.0625,3 -0.1375,0.61381 0.23624,1.125 0.8125,1.125 0.57626,0 2.21756,1.2375 3.65625,2.75 1.4387,1.51246 2.33447,2.22996 1.96875,1.59375 -0.43953,-0.76461 -0.005,-0.99263 1.28125,-0.65625 1.60704,0.42025 1.75171,0.83983 0.8125,2.34375 -0.62554,1.00165 -1.97852,1.73325 -3,1.65625 -2.37703,-0.17905 -2.75805,-0.55248 -2.84375,-3.09375 -0.069,-2.04396 -0.0704,-2.05638 -0.84375,-0.0937 -0.6802,1.726 -0.90696,1.5205 -1.625,-1.5 -0.45762,-1.925 -0.72956,-3.9319 -0.59375,-4.4375 0.1358,-0.5056 -0.45646,-0.33544 -1.3125,0.375 -1.05026,0.87165 -1.5625,0.94493 -1.5625,0.1875 0,-0.61734 -0.675,-1.125 -1.5,-1.125 -0.97333,0 -1.5,0.9788 -1.5,2.78125 0,1.52777 -0.8553,3.54214 -1.9375,4.46875 -1.77784,1.52223 -2.30836,1.52105 -5.5,0.1875 -3.54737,-1.48219 -4.42233,-2.78806 -2.5625,-3.9375 0.55,-0.33992 1,-1.46404 1,-2.5 0,-1.35356 0.57482,-1.78048 2.03125,-1.5 1.23931,0.23867 1.77365,-0.0112 1.375,-0.65625 -0.4276,-0.69187 0.1177,-0.81223 1.59375,-0.34375 1.674,0.53131 2.08001,0.37597 1.5,-0.5625 -0.49579,-0.80221 -0.39382,-0.99903 0.3125,-0.5625 1.13302,0.70024 0.53543,3.74098 -0.65625,3.34375 -0.36033,-0.12011 -0.65625,0.19293 -0.65625,0.6875 0,0.49457 -0.9,1.22698 -2,1.65625 -1.88722,0.73649 -1.85574,0.8087 0.28125,0.875 2.32913,0.0723 6.6743,-5.42721 5.625,-7.125 -0.0714,-0.1155 -0.0753,-0.18375 0.0312,-0.1875 z m 1.03125,4.875 c 0.0576,-0.005 0.11902,0.0495 0.1875,0.21875 0.27397,0.67703 0.31604,2.02703 0.0625,3 -0.25354,0.97297 -0.4796,0.43125 -0.5,-1.21875 -0.0153,-1.2375 0.0771,-1.98439 0.25,-2 z m 13.8125,0.625 c 0.2158,0.0339 0.63972,0.40199 1.34375,1.09375 0.96624,0.94941 1.57069,1.92931 1.3125,2.1875 -0.7218,0.72179 -2.39645,-0.72975 -2.75,-2.40625 -0.12676,-0.60112 -0.12165,-0.90889 0.0937,-0.875 z"
       id="path2996-7-4-0"
       inkscape:connector-curvature="0"
       sodipodi:nodetypes="cscscssccsccccccscssssscsssssssssssscccsczaccsccssccssccccccsccscccccsccsscscccccsccccscssccscccsccssccsccsccccccsccccssscssssscssssssssssssssccssscssccccccccsssssccscssscscccccccsassscccccsssssccsssssscccccccccccccccccsscccssccsccsscssscccscsscsscscccccccccsssssssssscsscsssscccsssssssssscssssscssscccsscccccssccsssccsssccssscscsccccsssccccssssssscccsccccsccccscccsccccsscccsscsssscsccccscccssscccssscssscccscsscccscccccssccccsscsssscccsccccssccsssscssscccssscscscccsccsssssssscssssssccccccssccssccc"
       inkscape:export-xdpi="90"
       inkscape:export-ydpi="90" />
  </g>
</svg>
