<?xml version="1.0" encoding="UTF-8" standalone="no"?>
<!-- Created with Inkscape (http://www.inkscape.org/) -->

<svg
   xmlns:dc="http://purl.org/dc/elements/1.1/"
   xmlns:cc="http://creativecommons.org/ns#"
   xmlns:rdf="http://www.w3.org/1999/02/22-rdf-syntax-ns#"
   xmlns:svg="http://www.w3.org/2000/svg"
   xmlns="http://www.w3.org/2000/svg"
   xmlns:sodipodi="http://sodipodi.sourceforge.net/DTD/sodipodi-0.dtd"
   xmlns:inkscape="http://www.inkscape.org/namespaces/inkscape"
   width="272.62668mm"
   height="150.70667mm"
   viewBox="0 0 966.00004 533.99999"
   id="svg3532"
   version="1.1"
   inkscape:version="0.91 r13725"
   sodipodi:docname="segelschule-neusiedl.svg">
  <defs
     id="defs3534" />
  <sodipodi:namedview
     id="base"
     pagecolor="#ffffff"
     bordercolor="#666666"
     borderopacity="1.0"
     inkscape:pageopacity="0.0"
     inkscape:pageshadow="2"
     inkscape:zoom="0.70710678"
     inkscape:cx="400.97477"
     inkscape:cy="175.1542"
     inkscape:document-units="px"
     inkscape:current-layer="layer2"
     showgrid="false"
     fit-margin-top="0"
     fit-margin-left="0"
     fit-margin-right="0"
     fit-margin-bottom="0"
     inkscape:window-width="1600"
     inkscape:window-height="838"
     inkscape:window-x="-8"
     inkscape:window-y="-8"
     inkscape:window-maximized="1" />
  <metadata
     id="metadata3537">
    <rdf:RDF>
      <cc:Work
         rdf:about="">
        <dc:format>image/svg+xml</dc:format>
        <dc:type
           rdf:resource="http://purl.org/dc/dcmitype/StillImage" />
        <dc:title></dc:title>
      </cc:Work>
    </rdf:RDF>
  </metadata>
  <g
     inkscape:groupmode="layer"
     id="layer2"
     inkscape:label="Ebene 2"
     style="display:inline">
    <path
       style="display:inline;fill:#2e3063;fill-opacity:1;stroke:none;stroke-opacity:1"
       d="m 403.30527,413.98826 c -18.2661,-2.6595 -27.31558,-17.6718 -26.0666,-43.2423 0.60074,-12.2991 3.07521,-19.6202 9.11824,-26.9775 5.8908,-7.172 12.19595,-10.2171 21.11466,-10.1973 18.09687,0.04 28.50126,12.3617 28.87788,34.1991 l 0.15056,8.7297 -22.25,0.2692 -22.25,0.2691 0,-4.5191 0,-4.5192 16.62883,0 16.62883,0 -0.65266,-5.25 c -0.94461,-7.5985 -5.33247,-15.833 -9.62105,-18.0553 -7.29114,-3.7783 -16.89129,-0.4347 -21.86676,7.6157 -7.7168,12.4861 -6.02537,37.5791 3.13038,46.4404 3.94645,3.8196 9.47107,6.2492 14.20958,6.2492 4.45075,0 12.65854,-3.0881 16.99124,-6.3928 l 3.33023,-2.5401 2.55541,3.8615 c 2.38496,3.6039 2.44237,3.961 0.8607,5.3525 -0.9321,0.82 -3.94473,2.6058 -6.69473,3.9684 -9.30296,4.6096 -16.03109,5.9274 -24.19474,4.7388 z m 67.19474,0.075 c -5.43753,-0.932 -9.60512,-3.2799 -13.30863,-7.498 -5.56778,-6.3413 -6.19137,-10.6468 -6.19137,-42.7467 l 0,-28.8185 5.5,0 5.5,0 0.022,28.25 c 0.0197,25.3362 0.21303,28.6707 1.87437,32.3286 4.67144,10.2855 16.47341,12.3038 25.51675,4.3636 6.4958,-5.7034 7.0009,-8.3151 7.3867,-38.1922 l 0.3454,-26.75 5.4274,0 5.4274,0 0,39 0,39 -5,0 -5,0 -0.032,-4.75 -0.032,-4.75 -2.0811,2.7903 c -4.3162,5.7872 -16.01548,9.3737 -25.35552,7.7729 z m 63.00002,0.2978 c -1.65,-0.2521 -5.1913,-1.1655 -7.8695,-2.0297 l -4.8695,-1.5714 0.6238,-4.5509 c 0.3431,-2.503 0.8418,-4.769 1.1083,-5.0355 0.2665,-0.2665 2.8521,0.2975 5.7457,1.2532 8.3794,2.7678 15.6337,3.0585 19.729,0.7907 4.74,-2.6248 7.2322,-6.2693 7.2322,-10.5762 0,-6.3322 -2.7869,-9.4516 -14.002,-15.6727 -5.6619,-3.1407 -11.4414,-6.7809 -12.8435,-8.0894 -11.0597,-10.3218 -7.0031,-29.0428 7.3701,-34.0126 6.7821,-2.3451 25.9888,-0.7572 27.8814,2.305 0.3299,0.5338 0.3089,2.9103 -0.047,5.2811 l -0.6464,4.3106 -6.2065,-1.9588 c -4.2514,-1.3418 -8.0647,-1.8323 -12.1052,-1.5571 -5.1192,0.3487 -6.2754,0.8235 -8.75,3.593 -6.2123,6.9528 -2.936,13.317 10.39,20.1829 16.6325,8.5694 21.4436,14.8555 20.4873,26.7686 -0.9722,12.112 -9.6086,19.7399 -23.3193,20.5961 -3.8001,0.2374 -8.2593,0.2253 -9.9093,-0.027 z m 98.12191,-0.4659 c -15.0916,-2.1956 -23.9329,-13.6202 -25.4571,-32.8951 -0.8408,-10.6322 0.044,-18.8392 2.8351,-26.2823 5.8949,-15.7227 18.8119,-23.7669 33.3257,-20.7539 12.9272,2.6837 20.7085,12.4581 22.6949,28.5085 0.5427,4.3847 0.71,9.4472 0.3718,11.25 l -0.6149,3.2777 -21.8887,0 -21.8887,0 0,-4.5 0,-4.5 16.5879,0 16.5879,0 -0.6568,-4.25 c -2.4265,-15.7029 -9.0792,-22.3683 -20.2368,-20.2751 -17.1271,3.2131 -22.3935,41.7042 -7.6238,55.7221 3.596,3.4129 9.2682,5.803 13.772,5.803 4.7505,0 13.4547,-3.394 16.8851,-6.5841 1.5485,-1.44 2.9337,-2.4602 3.0783,-2.267 5.8692,7.8424 5.7045,7.4546 3.8565,9.0819 -2.2613,1.9912 -10.7631,6.1994 -15.2503,7.5485 -5.7185,1.7193 -10.1533,2.0215 -16.3781,1.1159 z m 69.1007,0.051 c -15.0096,-2.4752 -23.5723,-15.2284 -24.4705,-36.4458 -0.9292,-21.9523 4.5028,-35.1934 17.1134,-41.7155 3.2054,-1.6578 5.9482,-2.1435 12.2053,-2.1614 6.9877,-0.02 8.6891,0.3392 12.6769,2.6762 2.5333,1.4846 5.5389,3.8853 6.6791,5.3349 l 2.0732,2.6356 0,-18.1349 0,-18.1349 5.5,0 5.5,0 0,52.5 0,52.5 -5.5,0 -5.5,0 0,-4.146 0,-4.146 -2.5074,2.7055 c -4.9148,5.3031 -14.7816,8.0147 -23.77,6.5324 z m 13.3161,-10.9656 c 16.9562,-8.6504 16.9476,-49.1555 -0.012,-57.7302 -11.1292,-5.6268 -20.5467,-0.4144 -24.7294,13.6872 -2.4253,8.1767 -2.1374,23.8229 0.5797,31.4965 4.4324,12.5182 14.2374,17.6096 24.1619,12.5465 z m -424.03873,-39.024 0,-49.0438 7.1467,0.2938 7.1467,0.2938 23.1033,39.7232 c 12.70681,21.8478 23.4408,39.7353 23.8533,39.75 0.4125,0.015 0.75,-17.9732 0.75,-39.9732 l 0,-40 5.5,0 5.5,0 0,49 0,49 -7.25,-0.013 -7.25,-0.013 -23,-39.4998 -23,-39.4998 -0.26147,39.5128 -0.26148,39.5128 -5.98852,0 -5.98853,0 0,-49.0439 z m 290.00002,10.0438 0,-39 5.5,0 5.50001,0 0,39 0,39 -5.50001,0 -5.5,0 z m 171.00001,-13.5 0,-52.5 5,0 5,0 0,52.5 0,52.5 -5,0 -5,0 z m -171.00001,-48.5 0,-7 5.5,0 5.50001,0 0,7 0,7 -5.50001,0 -5.5,0 z m -135.00002,-15.6347 c -1.375,-0.2601 -4.8625,-1.1363 -7.75,-1.9472 -4.79122,-1.3455 -5.25,-1.7284 -5.25,-4.3813 0,-1.5988 0.43223,-4.0438 0.96051,-5.4333 l 0.96051,-2.5263 4.78949,2.1376 c 3.16816,1.4141 7.59041,2.2901 13.06356,2.5879 17.0716,0.929 23.60966,-5.3653 25.60186,-24.6473 l 0.55216,-5.3442 -4.47172,4.1219 c -5.69982,5.2539 -7.95361,6.0665 -16.82513,6.0665 -12.1408,0 -20.92702,-5.8515 -26.25246,-17.4838 -6.06311,-13.2435 -5.07689,-36.8237 2.04866,-48.9825 5.0477,-8.6133 13.04955,-12.5474 25.44829,-12.5117 7.92336,0.023 14.2528,2.0038 16.99671,5.3196 1.95795,2.366 3.12756,2.0513 3.12756,-0.8416 0,-2.336 0.33058,-2.5 5.0413,-2.5 l 5.04132,0 -0.2913,41.75 c -0.2872,41.1607 -0.3239,41.822 -2.59943,46.8489 -2.8967,6.399 -9.20029,12.64 -15.69189,15.536 -4.94885,2.2078 -18.22896,3.4169 -24.5,2.2308 z m 17.13728,-39.3871 c 5.32697,-1.4797 11.37458,-8.505 13.4733,-15.6517 2.17949,-7.4216 2.1552,-21.1808 -0.0508,-28.7692 -2.26131,-7.7786 -7.20244,-13.1008 -13.39592,-14.4291 -8.80843,-1.8891 -15.30639,1.0035 -19.40573,8.6383 -6.60125,12.2947 -6.19908,32.8587 0.85194,43.5616 2.52158,3.8276 8.902,7.6113 12.88991,7.644 1.1,0.01 3.63677,-0.4382 5.63728,-0.9939 z m -160.73057,11.0456 c -2.25131,-0.4765 -5.67604,-1.5277 -7.61051,-2.3359 -3.4509,-1.4419 -3.50854,-1.5613 -3.05725,-6.3289 0.25298,-2.6727 0.76384,-5.1855 1.13525,-5.5841 0.37141,-0.3986 3.58915,0.4577 7.15054,1.903 8.73397,3.5442 18.48396,3.7259 25.18755,0.4692 10.28706,-4.9977 12.83737,-17.9354 5.01311,-25.4315 -1.50061,-1.4377 -7.60965,-5.2621 -13.57565,-8.4986 -19.14769,-10.3877 -25.04465,-17.2484 -25.11276,-29.2174 -0.0304,-5.3445 0.45604,-7.3387 2.73647,-11.2181 3.22396,-5.4844 9.17263,-9.9059 16.59292,-12.3329 6.45714,-2.1121 21.4587,-1.5852 27.73039,0.9739 l 4.09676,1.6717 -0.97927,4.9527 c -0.53861,2.724 -1.3147,4.9527 -1.72465,4.9527 -0.40995,0 -2.48782,-0.7431 -4.61749,-1.6515 -5.93904,-2.5331 -18.80637,-2.4045 -23.87212,0.2385 -5.27533,2.7524 -8.5,7.5911 -8.5,12.7543 0,3.5781 0.6101,4.6299 5.27968,9.1021 3.09383,2.9632 9.50736,7.2909 15.49118,10.4532 17.86143,9.4393 22.42514,15.2012 22.49936,28.4065 0.0472,8.4029 -1.92339,13.0957 -7.93549,18.8976 -6.02684,5.8161 -12.29962,8.1327 -22.83473,8.4331 -4.95,0.1412 -10.84198,-0.1331 -13.09329,-0.6096 z m 76.91747,-0.4636 c -12.80368,-4.0035 -19.27605,-13.399 -21.44491,-31.13 -2.54782,-20.8292 4.95767,-39.2896 18.70948,-46.0178 4.86053,-2.378 6.30313,-2.6181 13.2984,-2.2131 12.24348,0.7087 18.99097,5.5367 24.25555,17.3554 1.67902,3.7693 2.31105,7.5007 2.65845,15.6949 l 0.45575,10.75 -22.12845,0 -22.12845,0 0,-5 0,-5 16.1399,0 16.13991,0 -0.58342,-5.6527 c -1.18771,-11.5078 -7.46904,-18.7279 -16.17827,-18.5963 -8.39124,0.1269 -15.04817,6.3848 -18.15294,17.0648 -2.31213,7.9535 -1.53461,23.9723 1.48936,30.6842 4.28604,9.5132 10.00565,13.5007 19.36334,13.4993 5.24544,-8e-4 16.61858,-4.3076 18.22066,-6.8998 1.08539,-1.7562 1.90844,-1.3105 4.43744,2.4031 2.80102,4.1131 2.16185,5.4172 -4.26098,8.6939 -11.0301,5.6271 -21.4502,7.1283 -30.29082,4.3641 z m 144.10674,-0.3183 c -13.8723,-4.9599 -20.4928,-17.2996 -20.5261,-38.258 -0.028,-17.6383 5.542,-30.2123 16.4979,-37.2427 4.7449,-3.0448 5.5993,-3.2411 14.0744,-3.2344 7.3504,0.01 9.7819,0.412 13.1176,2.1911 5.0246,2.6799 10.0669,8.2825 12.5924,13.9918 2.1903,4.9515 3.9786,18.514 3.1304,23.7409 l -0.5792,3.569 -21.8692,0 -21.8691,0 0,-5 0,-5 16.5,0 c 9.7639,0 16.5,-0.3881 16.5,-0.9507 0,-2.7343 -2.4717,-11.9946 -4.0168,-15.0493 -3.5406,-6.9995 -9.3466,-9.787 -16.4189,-7.8826 -6.1932,1.6676 -9.182,4.3605 -12.6435,11.3918 -5.8463,11.8756 -4.9586,31.1203 1.8903,40.9824 7.0429,10.1413 21.7664,11.4072 33.0018,2.8376 l 3.4503,-2.6317 1.8968,2.4013 c 4.1859,5.2989 4.1702,5.6235 -0.4004,8.3005 -12.6596,7.4144 -24.3622,9.4063 -34.3286,5.843 z m 84.25821,0.3851 c -2.646,-0.742 -5.2896,-1.8279 -5.8748,-2.413 -1.1298,-1.1299 -0.2431,-10.2148 0.9969,-10.2139 0.3788,3e-4 3.1638,0.9431 6.1888,2.0951 4.2035,1.6009 7.1177,2.004 12.3626,1.7105 6.4258,-0.3597 7.0783,-0.6195 10.25,-4.0804 2.7857,-3.0398 3.3874,-4.4845 3.3874,-8.1342 0,-6.0125 -3.1149,-9.5095 -13.0958,-14.7021 -11.2892,-5.8733 -15.3387,-9.0896 -17.7715,-14.1152 -4.6568,-9.6196 -1.6006,-20.7204 7.2062,-26.1751 6.0713,-3.7603 16.1327,-4.6186 25.6273,-2.1862 3.5345,0.9055 6.6172,1.8372 6.8505,2.0705 0.2333,0.2334 0.1121,2.5056 -0.2694,5.0494 -0.5685,3.7914 -0.9958,4.5052 -2.3704,3.96 -0.9223,-0.3659 -4.7155,-1.3076 -8.4292,-2.0928 -12.2108,-2.5816 -19.7339,1.3997 -19.744,10.4488 -0.01,4.4029 3.9693,8.1098 14.2208,13.2641 16.6256,8.3592 22.3851,17.9498 18.7153,31.1645 -1.3336,4.8026 -6.0887,10.2372 -11.3451,12.9667 -5.1467,2.6724 -19.6498,3.4181 -26.9056,1.3833 z m 70.6433,-0.4203 c -12.6686,-4.5204 -20.0079,-14.5163 -22.5194,-30.671 -3.0942,-19.9024 5.0525,-38.2336 20.187,-45.4233 4.7915,-2.2762 6.7882,-2.6128 15.5,-2.6128 5.7617,0 11.5893,0.5627 13.75,1.3276 3.2718,1.1583 3.7482,1.7321 3.7363,4.5 -0.01,1.7448 -0.2699,4.1275 -0.5832,5.2947 l -0.5696,2.1223 -5.1668,-2.0036 c -13.596,-5.2724 -27.0868,-0.1283 -32.7868,12.5018 -2.0159,4.4668 -2.3732,6.8511 -2.3763,15.8581 0,10.1606 0.1417,10.8823 3.4964,17.38 4.8588,9.4112 9.7046,12.8241 18.95,13.3465 5.8538,0.3307 7.5872,0.01 12.0806,-2.2489 2.8854,-1.4492 5.3668,-2.5097 5.5142,-2.3567 0.1475,0.153 0.5814,2.383 0.9643,4.9556 l 0.6962,4.6773 -4.3527,2.2518 c -6.0779,3.1443 -19.2592,3.6914 -26.5202,1.1006 z m 128.2923,0.3839 c -5.5022,-2.0465 -10.2783,-7.0942 -12.8111,-13.5395 -2.0244,-5.1514 -2.2116,-7.6595 -2.5977,-34.8015 l -0.416,-29.25 5.5295,0 5.5295,0 0.3205,27.75 c 0.2973,25.7391 0.4731,28.0761 2.4254,32.25 2.9054,6.2116 5.4827,8.206 11.3308,8.7679 6.7108,0.6448 9.4254,-0.1958 14.0111,-4.3387 6.6409,-5.9996 7.3096,-9.3108 7.8108,-38.6792 l 0.4394,-25.75 4.9016,0 4.9015,0 0,38.5 0,38.5 -4.5,0 c -4.3133,0 -4.5,-0.122 -4.5,-2.9409 0,-3.8356 -1.2764,-4.5165 -3.6164,-1.9291 -5.2854,5.8443 -20.1428,8.6656 -28.7588,5.461 z m 101.6995,-0.03 c -6.3648,-1.9902 -11.04,-5.2871 -14.3787,-10.1398 -4.0907,-5.9456 -5.7748,-11.1073 -6.9242,-21.2229 -2.3691,-20.8499 5.0135,-39.1538 18.4422,-45.7238 4.9986,-2.4456 6.3912,-2.6815 13.4236,-2.2744 12.1331,0.7023 18.6073,5.1423 23.7729,16.3033 2.3599,5.0988 2.8344,7.6072 3.1684,16.747 l 0.3928,10.75 -22.1106,0 -22.1106,0 0,-5 0,-5 16.4371,0 16.4371,0 -0.5285,-3.75 c -1.4836,-10.5263 -5.0062,-16.7699 -10.9432,-19.3961 -3.3806,-1.4954 -5.1126,-1.7044 -8.2615,-0.9969 -11.7801,2.6468 -17.8233,14.5273 -16.921,33.2655 0.3953,8.2083 0.9296,10.6656 3.3748,15.5214 3.9594,7.8627 8.8003,11.5585 15.9122,12.1483 6.8079,0.5646 13.3417,-1.1755 18.5322,-4.9355 2.1689,-1.5712 4.1357,-2.8567 4.3706,-2.8567 0.2349,0 1.4083,1.5878 2.6076,3.5283 2.5748,4.166 1.9286,5.4383 -4.4024,8.6682 -11.0301,5.6271 -21.4502,7.1283 -30.2908,4.3641 z m -331.32421,-52.5606 0,-52 5.25,-2e-4 5.25,-2e-4 -0.2676,52.0002 -0.2676,52.0002 -4.9824,0 -4.9824,0 z m 145.00001,0 0,-52 5,0 5,0 0,17.6274 0,17.6274 4.3953,-4.0515 c 4.9952,-4.6044 9.5702,-6.1897 17.8868,-6.1977 10.5697,-0.01 18.0299,5.0796 21.9022,14.943 2.0213,5.1485 2.2099,7.6743 2.5982,34.8014 l 0.4187,29.25 -5.6006,0 -5.6006,0 0,-25.4507 c 0,-14.7313 -0.4632,-27.6107 -1.0998,-30.5789 -3.0404,-14.1769 -17.2883,-18.1295 -27.4113,-7.6044 -6.2547,6.5032 -6.7066,8.8728 -7.2254,37.884 l -0.4605,25.75 -4.9015,0 -4.9015,0 z m 139,0 0,-52 5.5,0 5.5,0 0,52 0,52 -5.5,0 -5.5,0 z"
       id="path3551"
       inkscape:connector-curvature="0"
       sodipodi:nodetypes="ssssscccccccsssssscscsscsscccsssscccccccccscccccsscssscscccsssssccccscscsccccccccsssscsscccssssccccccccccccscccsssccccccscscccccccccccccccccccccccccccccccccccccccccccsssccsscsssscssscsssccssssscccscsscssssscccsscsscssscscsscsscccccccscssssssccsscssccccccssccssscccccccccccssscscccccscccssssccccsscscccscsscsscccssssscccccssscccsssssscccccccsssssscsssccccccccccccccccscsscccscssccccccccccccc" />
    <path
       style="display:inline;fill:#2e3063;fill-opacity:1"
       d="m 46.876892,522.15416 c -0.55431,-1.0358 -0.56812,-2.3869 -0.0341,-3.341 0.49309,-0.8811 8.11794,-7.0738 16.94411,-13.7616 35.915273,-27.2137 53.311828,-36.1572 70.579618,-36.2847 12.4565,-0.092 19.10327,3.9777 25.9324,15.8777 l 1.82366,3.1778 13.07704,-7.0052 c 37.37906,-20.0235 47.68973,-23.9119 54.3175,-20.4846 2.89801,1.4986 3.02583,1.7932 1.98031,4.5631 -3.18729,8.4441 11.21443,15.2395 24.78632,11.6954 3.24928,-0.8485 6.0845,-1.366 6.30049,-1.15 2.16415,2.1641 -9.8367,7.7155 -17.94222,8.2998 -5.70748,0.4113 -7.38445,0.1126 -12,-2.138 -2.95094,-1.4389 -7.31283,-4.1957 -9.69309,-6.1261 -3.05198,-2.4753 -5.32924,-3.51 -7.72511,-3.51 -4.80214,0 -20.62242,8.3509 -40.94715,21.6144 -22.1572,14.4592 -32.91021,20.6427 -35.17032,20.2243 -1.69779,-0.3142 -3.87176,-3.8584 -7.17364,-11.6948 -0.73917,-1.7543 -2.53964,-3.808 -4.00104,-4.5637 -6.6231,-3.4249 -20.65979,-2.777 -33.573335,1.5497 -9.859693,3.3035 -29.450963,13.1028 -38.316193,19.1653 -7.3148,5.0022 -8.33848,5.437 -9.16521,3.8922 z"
       id="path3551-9-9"
       inkscape:connector-curvature="0"
       sodipodi:nodetypes="ccssscssssccscsscsssscc" />
    <path
       style="display:inline;fill:#669cae;fill-opacity:1"
       d="m 145.31187,384.98262 c -15.23301,-6.3742 -28.34204,-14.6648 -52.603801,-33.2684 -31.35424,-24.0421 -63.39619,-52.5004 -63.39619,-56.3059 0,-0.9513 0.90183,-2.5458 2.00406,-3.5433 2.6947,-2.4387 4.94165,-1.3509 16.45712,7.9674 21.0559,17.0382 61.821231,44.4974 79.291861,53.4103 l 4.24695,2.1666 0,-5.9703 c 0,-3.2837 -0.7112,-13.9803 -1.58046,-23.7703 -2.29221,-25.8164 -2.32252,-66.1268 -0.063,-83.8001 2.63166,-20.584 5.22516,-33.0143 9.75457,-46.7523 10.49807,-31.8415 27.43054,-65.2253 47.75185,-94.1469 4.28989,-6.105404 9.37667,-13.575804 11.30396,-16.600804 1.9273,-3.025 9.56185,-13.6 16.96569,-23.5 7.40384,-9.9 13.8505,-18.6371 14.32593,-19.4157 0.98791,-1.6181 -7.23993,2.9052 -18.99649,10.4434 -23.8628,15.3005 -50.8456,37.1494 -84.27104,68.236904 -19.20271,17.8596 -41.530651,44.6503 -55.202131,66.2354 -9.32569,14.7239 -30.73871,58.2871 -37.47292,76.2359 -0.97725,2.6047 -2.33839,5.2018 -3.02475,5.7714 -1.75309,1.455 -6.4912,-0.4938 -6.4912,-2.6698 0,-2.8588 13.68094,-34.7352 22.96233,-53.502 19.37726,-39.1804 34.03749,-59.8421 63.957431,-90.1394 30.3878,-30.771204 56.24253,-52.289804 89.08023,-74.140804 29.9609,-19.9367 62.57625,-37.5553 69.52186,-37.5553 3.36844,0 3.48768,0.1142 2.34982,2.25 -0.65929,1.2375 -5.1316,6.525 -9.93849,11.75 -24.27005,26.3812 -39.44585,47.2276 -60.4223,83.000004 -32.05586,54.6668 -46.49033,93.2312 -50.52995,135 -2.17285,22.4669 -1.02619,81.9991 2.17307,112.8216 l 1.17514,11.3216 7.83542,3.9396 c 4.30949,2.1668 7.83543,4.3515 7.83543,4.855 0,0.5035 -2.3625,2.3272 -5.25,4.0527 -2.8875,1.7255 -6.77905,4.2336 -8.64788,5.5734 -4.10052,2.9399 -4.19521,2.9403 -11.10212,0.05 z"
       id="path3551-9-9-1"
       inkscape:connector-curvature="0"
       sodipodi:nodetypes="cssssscssssssscsssscsssssssssscsssccc" />
    <path
       style="display:inline;fill:#649dae;fill-opacity:1"
       d="m 180.33455,456.04128 c -7.50347,-1.1285 -13.31733,-2.8836 -20.2083,-6.1004 -7.52954,-3.5148 -8.2917,-3.5613 -8.2917,-0.505 0,4.185 -7.5346,4.9788 -14.63455,1.5418 -4.91351,-2.3786 -16.35345,-15.2123 -16.38741,-18.3839 -0.0324,-3.0289 -3.72679,-10.6647 -6.62937,-13.7021 -2.68704,-2.8119 -2.82177,-5.5377 -0.34868,-7.0545 1.10633,-0.6785 4.64936,1.1717 13.50001,7.0501 13.56189,9.0075 30.34367,17.7615 37.91398,19.7774 6.18518,1.6471 35.08371,1.8501 44.5574,0.3131 8.20267,-1.3308 9.02862,-0.4481 9.02862,9.6492 0,5.6447 -0.34202,7.3331 -1.58179,7.8089 -2.17744,0.8355 -30.77118,0.5299 -36.91821,-0.3946 z m -30.77801,-8.6476 c 0.28656,-0.8724 -19.42289,-11.3509 -21.35052,-11.3509 -0.20431,0 -0.37147,0.5837 -0.37147,1.2971 0,1.6624 6.59772,7.992 10.5,10.0733 3.33644,1.7796 10.63525,1.7669 11.22199,-0.019 z"
       id="path3551-9-9-7"
       inkscape:connector-curvature="0"
       sodipodi:nodetypes="sssscscsssscscssccc" />
  </g>
</svg>
