<?xml version="1.0" encoding="UTF-8" standalone="no"?>
<svg
   xmlns:dc="http://purl.org/dc/elements/1.1/"
   xmlns:cc="http://creativecommons.org/ns#"
   xmlns:rdf="http://www.w3.org/1999/02/22-rdf-syntax-ns#"
   xmlns:svg="http://www.w3.org/2000/svg"
   xmlns="http://www.w3.org/2000/svg"
   xmlns:sodipodi="http://sodipodi.sourceforge.net/DTD/sodipodi-0.dtd"
   xmlns:inkscape="http://www.inkscape.org/namespaces/inkscape"
   viewBox="0 0 3069.019 295.94526"
   version="1.1"
   id="svg2"
   inkscape:version="0.91 r13725"
   sodipodi:docname="logo_09.svg"
   width="3069.019"
   height="295.94525">
  <metadata
     id="metadata20">
    <rdf:RDF>
      <cc:Work
         rdf:about="">
        <dc:format>image/svg+xml</dc:format>
        <dc:type
           rdf:resource="http://purl.org/dc/dcmitype/StillImage" />
        <dc:title></dc:title>
      </cc:Work>
    </rdf:RDF>
  </metadata>
  <defs
     id="defs18" />
  <sodipodi:namedview
     pagecolor="#ffffff"
     bordercolor="#666666"
     borderopacity="1"
     objecttolerance="10"
     gridtolerance="10"
     guidetolerance="10"
     inkscape:pageopacity="0"
     inkscape:pageshadow="2"
     inkscape:window-width="1600"
     inkscape:window-height="838"
     id="namedview16"
     showgrid="false"
     fit-margin-top="5"
     fit-margin-left="5"
     fit-margin-bottom="5"
     fit-margin-right="5"
     inkscape:zoom="0.19265976"
     inkscape:cx="2366.6814"
     inkscape:cy="155.21091"
     inkscape:window-x="-8"
     inkscape:window-y="-8"
     inkscape:window-maximized="1"
     inkscape:current-layer="svg2" />
  <g
     transform="translate(1.5981745,-632.62627)"
     id="g4">
    <g
       style="clip-rule:evenodd;fill-rule:evenodd;stroke-linejoin:round;stroke-miterlimit:1.41420996"
       transform="matrix(0.00320986,0,0,0.00320986,3.4018255,637.62627)"
       id="g6">
      <circle
         cx="44358.301"
         cy="44541.699"
         r="43679.199"
         style="fill:#fefefe"
         id="circle8" />
      <path
         style="fill:#000000"
         d="m 44541.7,0 c 24600,0 44541.7,19941.7 44541.7,44541.7 0,24600 -19941.7,44541.7 -44541.7,44541.7 C 19941.7,89083.4 0,69141.7 0,44541.7 0,19941.7 19941.7,0 44541.7,0 Z m -450,2304.17 c -208.334,0 -416.667,4.166 -625,8.333 -23033.3,333.333 -41620.8,19125 -41620.8,42233.3 0,23137.5 18629.2,41941.7 41700,42233.3 -11408.3,-287.5 -20575,-9637.5 -20575,-21112.5 0,-11658.3 9462.5,-21120.8 21120.8,-21120.8 11658.3,0 21120.8,-9462.5 21120.8,-21120.8 0,-11658.3 -9462.5,-21120.8 -21120.8,-21120.8 z"
         id="path10"
         inkscape:connector-curvature="0" />
      <path
         style="fill:#000000"
         d="m 37425,27579.2 0,-15745.8 c 0,-687.5 250,-1283.33 754.167,-1783.33 500,-500 1095.83,-754.167 1787.5,-754.167 l 8208.33,0 c 679.167,0 1266.67,250 1762.5,754.167 495.833,500 741.667,1095.83 741.667,1783.33 l 0,15745.8 c 0,700 -250,1295.83 -741.667,1791.67 -495.833,495.834 -1095.83,741.667 -1795.83,741.667 l -8175,0 c -708.334,0 -1312.5,-245.833 -1804.17,-741.667 -491.667,-495.833 -733.333,-1091.67 -733.333,-1791.67 l -4.167,0 z m 10654.2,-95.9 0,-15520.8 -8020.83,0 0,15520.8 8020.83,0 z"
         id="path12"
         inkscape:connector-curvature="0" />
      <path
         style="fill:#ffffff"
         d="m 40425,75179.2 4041.67,0 0,-15520.8 -3975,0 c -366.667,0 -675,-129.166 -933.334,-383.333 -258.333,-254.167 -383.333,-566.667 -383.333,-933.333 0,-362.5 129.167,-675 383.333,-929.167 254.167,-254.167 566.667,-383.333 933.334,-383.333 l 6608.33,0 0,18154.2 2633.33,0 0,-5479.17 c 0,-354.167 129.167,-662.5 383.334,-925 254.166,-262.5 566.666,-391.667 929.166,-391.667 366.667,0 679.167,129.167 933.334,383.333 254.166,258.334 383.333,566.667 383.333,933.334 l 0,6795.83 c 0,366.667 -129.167,679.167 -383.333,937.5 -254.167,254.167 -562.5,379.167 -933.334,379.167 l -10620.8,0 c -366.667,0 -675,-133.334 -929.167,-395.834 -258.333,-266.666 -383.333,-583.333 -383.333,-950 0,-354.166 129.167,-658.333 383.333,-912.5 254.167,-250 566.667,-375 929.167,-375 l 0,-4.166 z"
         id="path14"
         inkscape:connector-curvature="0" />
    </g>
  </g>
  <text
     xml:space="preserve"
     style="font-style:normal;font-weight:normal;font-size:309.41665649px;line-height:125%;font-family:sans-serif;letter-spacing:0px;word-spacing:0px;fill:#ffffff;fill-opacity:1;stroke:none;stroke-width:1px;stroke-linecap:butt;stroke-linejoin:miter;stroke-opacity:1"
     x="342.34341"
     y="258.79004"
     id="text3348"
     sodipodi:linespacing="125%"><tspan
       sodipodi:role="line"
       id="tspan3350"
       x="342.34341"
       y="258.79004"
       style="font-style:normal;font-variant:normal;font-weight:normal;font-stretch:normal;font-size:309.4125061px;line-height:125%;font-family:Arial;-inkscape-font-specification:'Arial, Normal';text-align:start;writing-mode:lr-tb;text-anchor:start">CODERDOJO</tspan></text>
  <g
     id="g3376"
     transform="translate(0,0.10306386)">
    <text
       sodipodi:linespacing="125%"
       id="text3348-2"
       y="134.27908"
       x="2393.7522"
       style="font-style:normal;font-weight:normal;font-size:175.29367065px;line-height:125%;font-family:sans-serif;letter-spacing:0px;word-spacing:0px;fill:#ffffff;fill-opacity:1;stroke:none;stroke-width:1px;stroke-linecap:butt;stroke-linejoin:miter;stroke-opacity:1"
       xml:space="preserve"><tspan
         style="font-style:normal;font-variant:normal;font-weight:normal;font-stretch:normal;font-size:175.2913208px;line-height:125%;font-family:Arial;-inkscape-font-specification:'Arial, Normal';text-align:start;writing-mode:lr-tb;text-anchor:start"
         y="134.27908"
         x="2393.7522"
         id="tspan3350-1"
         sodipodi:role="line">Neusiedl</tspan></text>
    <text
       sodipodi:linespacing="125%"
       id="text3348-2-1"
       y="284.79733"
       x="2433.595"
       style="font-style:normal;font-weight:normal;font-size:175.29367065px;line-height:125%;font-family:sans-serif;letter-spacing:0px;word-spacing:0px;fill:#ffffff;fill-opacity:1;stroke:none;stroke-width:1px;stroke-linecap:butt;stroke-linejoin:miter;stroke-opacity:1"
       xml:space="preserve"><tspan
         style="font-style:normal;font-variant:normal;font-weight:normal;font-stretch:normal;font-size:175.2913208px;line-height:125%;font-family:Arial;-inkscape-font-specification:'Arial, Normal';text-align:start;writing-mode:lr-tb;text-anchor:start"
         y="284.79733"
         x="2433.595"
         id="tspan3350-1-9"
         sodipodi:role="line">am See</tspan></text>
  </g>
</svg>
